<svg xmlns="http://www.w3.org/2000/svg" width="169.322" height="36.908" viewBox="0 0 169.322 36.908">
  <g id="Logo" transform="translate(-3095.248 2061.236)">
    <g id="Group_10" data-name="Group 10" transform="translate(3095.248 -2061.236)">
      <g id="pawprint" transform="translate(0 0)">
        <path id="Path_1" data-name="Path 1" d="M87.382,186.684a10.282,10.282,0,0,0-17.314,0l-4.579,7.143a6.508,6.508,0,0,0,8.1,9.471l.086-.038a12.794,12.794,0,0,1,10.188.038,6.472,6.472,0,0,0,2.612.553,6.554,6.554,0,0,0,1.457-.165,6.509,6.509,0,0,0,4.031-9.858Zm0,0" transform="translate(-59.142 -166.943)" fill="#e7470c"/>
        <path id="Path_2" data-name="Path 2" d="M7.579,110.47a4.992,4.992,0,0,0,2.914-3.091,6.448,6.448,0,0,0-.114-4.447,6.453,6.453,0,0,0-2.9-3.375,4.992,4.992,0,0,0-4.232-.341c-2.736,1.052-3.992,4.433-2.8,7.538a6.03,6.03,0,0,0,5.423,4.032,4.727,4.727,0,0,0,1.705-.316Zm0,0" transform="translate(0 -90.738)" fill="#e7470c"/>
        <path id="Path_3" data-name="Path 3" d="M130.616,14.136c3.42,0,6.2-3.17,6.2-7.067S134.036,0,130.616,0s-6.2,3.171-6.2,7.069S127.2,14.136,130.616,14.136Zm0,0" transform="translate(-114.152 0)" fill="#e7470c"/>
        <path id="Path_4" data-name="Path 4" d="M287.931,52.8h0a5.056,5.056,0,0,0,1.6.258,6.429,6.429,0,0,0,5.853-4.606,6.931,6.931,0,0,0-.1-4.782,5.243,5.243,0,0,0-7.774-2.584,6.932,6.932,0,0,0-2.941,3.771c-1.126,3.388.383,6.951,3.363,7.942Zm0,0" transform="translate(-260.754 -36.933)" fill="#e7470c"/>
        <path id="Path_5" data-name="Path 5" d="M385.9,171.993h0c-2.359-1.742-5.886-.987-7.864,1.684s-1.667,6.266.688,8.01a4.849,4.849,0,0,0,2.913.94A6.272,6.272,0,0,0,386.59,180C388.566,177.331,388.257,173.738,385.9,171.993Zm0,0" transform="translate(-345.662 -156.946)" fill="#e7470c"/>
      </g>
      <path id="Path_6" data-name="Path 6" d="M6.706-3.445a.6.6,0,0,0-.041.226v.287a2.357,2.357,0,0,0,.01.287.747.747,0,0,1,.01.123V-2.3a.774.774,0,0,0,.041.246v.226a1.043,1.043,0,0,0,.021.205,4.032,4.032,0,0,0,.123.656.4.4,0,0,1,.01.154.26.26,0,0,0,.031.154,1.348,1.348,0,0,1,.041.328.6.6,0,0,1-.021.205.917.917,0,0,0-.154.236.1.1,0,0,1-.051.072l-.308.1L6.245.246A.9.9,0,0,0,6.05.226.888.888,0,0,1,5.722.205,1.469,1.469,0,0,1,5.5.174a.143.143,0,0,0-.062-.01.87.87,0,0,1-.267,0A1.381,1.381,0,0,0,4.942.144a3.737,3.737,0,0,0-.41.021,1.666,1.666,0,0,1-.369,0A1.136,1.136,0,0,0,3.938.133q.021.01-.021.01A.7.7,0,0,0,3.681.113a.848.848,0,0,1-.113.01.973.973,0,0,1-.226.021Q3.2.164,3.086.185a.683.683,0,0,1-.236,0A1.9,1.9,0,0,1,2.625.123a1.351,1.351,0,0,1-.472,0,2.236,2.236,0,0,1-.267-.1,1.1,1.1,0,0,1-.164-.133q0-.01-.021-.031Q1.538-.41,1.559-.472a.328.328,0,0,0,0-.164.586.586,0,0,1,0-.308q.021-.267.021-.39v-.328q0-.1.01-.205t.01-.205q0-.164.01-.318a.849.849,0,0,1,.051-.256.231.231,0,0,1-.021-.164.674.674,0,0,0,.021-.164L1.641-3.2a.8.8,0,0,1,.021-.174.8.8,0,0,0,.021-.174q0-.1-.01-.205t-.01-.226a1.766,1.766,0,0,1,.01-.195.4.4,0,0,0-.031-.195q.041-.226,0-.267a.468.468,0,0,1,0-.195.9.9,0,0,0,.021-.195v-.195a1.733,1.733,0,0,0-.021-.236q0-.328-.01-.461t-.01-.3V-6.5a1.041,1.041,0,0,1-.01-.246q.01-.1.01-.205L1.6-7.4q0-.472-.01-.933T1.538-9.27q-.021-.164-.041-.277a1.116,1.116,0,0,0-.062-.215.293.293,0,0,0-.01-.174.889.889,0,0,1-.051-.174.664.664,0,0,0-.01-.154.227.227,0,0,1-.01-.072,1.326,1.326,0,0,1-.01-.267.091.091,0,0,0,.01-.041.944.944,0,0,1-.072-.3.576.576,0,0,0,.01-.113.928.928,0,0,1-.031-.277,1.766,1.766,0,0,0,.01-.195.426.426,0,0,1-.01-.154.475.475,0,0,0,.01-.092.558.558,0,0,0-.021-.154Q1.23-12,1.21-12.059a1.582,1.582,0,0,0-.01-.174.4.4,0,0,1,.031-.195.81.81,0,0,1-.031-.123,1.042,1.042,0,0,1-.01-.164q-.021-.205-.031-.256a.475.475,0,0,1-.01-.092.4.4,0,0,1-.01-.154.527.527,0,0,0-.01-.174q-.041-.185-.051-.226a.337.337,0,0,1-.01-.082.5.5,0,0,0-.041-.185A.084.084,0,0,1,1-13.945q-.021-.226-.031-.3t-.031-.174v-.246q.082-.246.1-.3a.273.273,0,0,1,.062-.092.551.551,0,0,0,.174-.082q.01-.021.051-.021a2.028,2.028,0,0,1,.287-.021h.287q.1,0,.205.01a.69.69,0,0,0,.205-.01,1.626,1.626,0,0,1,.431-.021,2.643,2.643,0,0,0,.328.021h.431a2.167,2.167,0,0,0,.236.021.256.256,0,0,1,.113.021,2.046,2.046,0,0,0,.246.041q.185.021.236.031a.948.948,0,0,1,.113.031.389.389,0,0,0,.185,0,.182.182,0,0,1,.082-.021,1.885,1.885,0,0,0,.328.01q.123-.01.246-.01A.509.509,0,0,0,5.5-15a.28.28,0,0,1,.062-.01l.154.041a.558.558,0,0,0,.154.021.97.97,0,0,1,.267-.031.883.883,0,0,0,.144.01H6.45a.271.271,0,0,1,.154.041.556.556,0,0,1,.338-.021.985.985,0,0,0,.4,0,4.083,4.083,0,0,1,.6-.031q.236.01.543.01a.635.635,0,0,1,.267.041,4.42,4.42,0,0,1,.472.021,1.521,1.521,0,0,1,.308.062q.246.021.318.021h.113q.1.021.195.031t.195.031a.484.484,0,0,0,.226.1,1.619,1.619,0,0,1,.246.062,1.131,1.131,0,0,0,.226.062.118.118,0,0,1,.082.041.316.316,0,0,1,.092.082.529.529,0,0,0,.113.1,1.718,1.718,0,0,1,.236.236.3.3,0,0,0,.092.092.769.769,0,0,1,.226.195q.041.072.082.133a.848.848,0,0,1,.185.226.518.518,0,0,0,.062.123q.164.185.174.205a.161.161,0,0,0,.031.041q.164.267.185.287a.757.757,0,0,1,.092.205.184.184,0,0,0,.051.1l.082.226a1.551,1.551,0,0,1,.185.318q.041.113.082.236a.731.731,0,0,1,.1.195.165.165,0,0,0,.021.072l.082.226a.644.644,0,0,0,.051.215.494.494,0,0,1,.051.133q.041.164.072.328a1.965,1.965,0,0,0,.092.328,1.229,1.229,0,0,1,.041.164.157.157,0,0,0,.021.062,2.612,2.612,0,0,1,.062.42.574.574,0,0,0,.041.215.355.355,0,0,0-.021.205.518.518,0,0,1,0,.205q-.021.062-.041.113a.3.3,0,0,0-.021.113.79.79,0,0,1-.01.195.081.081,0,0,0-.01.051q-.021.205-.031.267a.644.644,0,0,0-.01.1.792.792,0,0,0-.092.215.042.042,0,0,1,.01.031,3.02,3.02,0,0,1-.154.287.35.35,0,0,0-.051.123A1.54,1.54,0,0,0,13.2-7.2a.13.13,0,0,1-.031.062,1.408,1.408,0,0,0-.154.246.4.4,0,0,1-.031.082.611.611,0,0,0-.185.215.473.473,0,0,1-.062.133.723.723,0,0,0-.195.185,1.546,1.546,0,0,1-.174.205,1.294,1.294,0,0,0-.164.154,1.4,1.4,0,0,1-.1.113,1.294,1.294,0,0,0-.123.133.155.155,0,0,1-.062.051l-.164.164q-.164.144-.164.164a1.1,1.1,0,0,1-.267.246q-.062.041-.133.092l-.154.113a.617.617,0,0,1-.267.164,1.853,1.853,0,0,1-.39.226.755.755,0,0,0-.195.1.033.033,0,0,1-.031.021l-.226.1-.226.1a1.939,1.939,0,0,0-.215.072q-.072.031-.154.072-.308.1-.461.144a2.376,2.376,0,0,1-.318.062.594.594,0,0,0-.174.082.345.345,0,0,1-.133.062.825.825,0,0,1-.226.021.8.8,0,0,1-.1.041.387.387,0,0,1-.123.021,1.19,1.19,0,0,1-.267.01,1.406,1.406,0,0,0-.287.01.454.454,0,0,0-.144.021.337.337,0,0,1-.1.021.4.4,0,0,1-.154.01A.186.186,0,0,0,6.706-3.445ZM6.316-9.68a.947.947,0,0,1-.01.133,1.089,1.089,0,0,0-.01.154,1.321,1.321,0,0,0,.01.164,1.322,1.322,0,0,1,.01.164q0,.164-.01.308T6.3-8.47a.653.653,0,0,0,.01.164.143.143,0,0,1,.01.062.628.628,0,0,1,.01.185q-.01,0-.01.041a.556.556,0,0,1,.051.236,1.089,1.089,0,0,0-.01.154q0,.226.01.41t.01.349L6.4-6.6a2.028,2.028,0,0,1,.021.287,2.028,2.028,0,0,0,.021.287,1.419,1.419,0,0,1,.328-.154.506.506,0,0,0,.267-.195q.185-.1.185-.123t.041-.041a.576.576,0,0,1,.226-.144A.569.569,0,0,1,7.619-6.8a.129.129,0,0,0,.051-.031,1.119,1.119,0,0,0,.082-.092.257.257,0,0,1,.082-.072L8-7.178q.164-.226.205-.287l.082-.123q.144-.205.174-.195t.031-.031l.082-.164a.321.321,0,0,1,.062-.082A.827.827,0,0,0,8.8-8.306a.066.066,0,0,1,.041-.062A.146.146,0,0,1,8.859-8.5a.062.062,0,0,0,0-.092l.082-.246a.159.159,0,0,0,.041-.144.387.387,0,0,1-.021-.123.476.476,0,0,1-.01-.164.747.747,0,0,0,.01-.123,3.39,3.39,0,0,1-.144-.369.8.8,0,0,0-.062-.164,1.778,1.778,0,0,1-.062-.267.182.182,0,0,0-.021-.082,1.281,1.281,0,0,0-.1-.226.238.238,0,0,1-.041-.062,1.248,1.248,0,0,0-.144-.185q-.205-.185-.205-.215t-.041-.051a2.459,2.459,0,0,1-.195-.205.292.292,0,0,0-.051-.062q-.164-.144-.226-.144a1.593,1.593,0,0,0-.174-.164q-.01,0-.031-.021-.226-.164-.246-.174a.292.292,0,0,1-.062-.051q-.205-.164-.226-.154A.073.073,0,0,1,6.87-12q-.164-.1-.185-.113a.161.161,0,0,1-.041-.031.26.26,0,0,0-.123-.062.456.456,0,0,1-.144-.062.549.549,0,0,0-.041.205,1.043,1.043,0,0,0,.021.205,1.475,1.475,0,0,1,0,.349l-.041.287a4.538,4.538,0,0,0-.01.513q.01.205.01.431a.874.874,0,0,0-.021.318A1.819,1.819,0,0,1,6.316-9.68ZM22.207.062q-.1-.246-.133-.3a.5.5,0,0,1-.051-.154l.021-.267a.558.558,0,0,0-.021-.154A.487.487,0,0,1,22-.943a1.31,1.31,0,0,0-.082-.308,1.231,1.231,0,0,0,.021-.174.2.2,0,0,0-.021-.092L21.8-1.723q-.164.205-.144.205a.625.625,0,0,0-.185.144q-.123.123-.144.123t-.062.041a2.333,2.333,0,0,1-.226.287l-.164.185a.633.633,0,0,1-.185.164,1.65,1.65,0,0,0-.144.154.3.3,0,0,1-.082.072.9.9,0,0,1-.226.205q-.185.205-.226.205a.39.39,0,0,1-.1.072.39.39,0,0,0-.1.072.825.825,0,0,1-.226.021H19.3A1.017,1.017,0,0,1,19.008.1q-.185-.041-.246-.062a.387.387,0,0,0-.123-.021l-.185-.144a1.785,1.785,0,0,1-.185-.051.091.091,0,0,0-.041-.01A2.4,2.4,0,0,1,17.972-.3a.305.305,0,0,0-.154-.031Q17.7-.41,17.685-.441a.129.129,0,0,0-.031-.051.707.707,0,0,0-.205-.1.218.218,0,0,0-.123-.133.663.663,0,0,1-.164-.092l-.154-.154-.051-.051-.185-.185-.164-.185q-.164-.226-.246-.349a1.1,1.1,0,0,1-.205-.287L15.87-2.3a.625.625,0,0,1-.144-.205,1.849,1.849,0,0,1-.144-.226.243.243,0,0,1-.092-.185q-.01-.123-.01-.246a2.029,2.029,0,0,0-.1-.308.331.331,0,0,1-.041-.205.328.328,0,0,0,0-.164,1.156,1.156,0,0,0,.092-.185.218.218,0,0,1,.133-.123q.082-.205.1-.205.1-.144.144-.205a1.082,1.082,0,0,1,.113-.174l.072-.072A.88.88,0,0,1,16.157-5a1.009,1.009,0,0,0,.154-.144q.072-.082.154-.164.164-.185.308-.328a1.682,1.682,0,0,1,.174-.185q.01,0,.031-.021a2.01,2.01,0,0,0,.236-.205.77.77,0,0,1,.072-.082,1.113,1.113,0,0,1,.205-.123.157.157,0,0,0,.062-.021,2.4,2.4,0,0,0,.226-.144.908.908,0,0,0,.195-.144.2.2,0,0,1,.072-.062q.205-.123.287-.164a1.887,1.887,0,0,1,.195-.144q.01,0,.031-.021.226-.082.267-.164a2.545,2.545,0,0,0,.328-.154,1.158,1.158,0,0,1,.267-.113,1.128,1.128,0,0,0,.287-.164q.205-.164.205-.205a.239.239,0,0,0-.174-.051,1.977,1.977,0,0,1-.215.01H19.09a.947.947,0,0,0-.133.01.4.4,0,0,1-.154-.01,1.585,1.585,0,0,0-.338-.031.947.947,0,0,1-.133.01l-.349.021a.774.774,0,0,0-.246-.041.325.325,0,0,1-.144.01,1.176,1.176,0,0,0-.144-.01,1.278,1.278,0,0,0-.267.031,1.467,1.467,0,0,1-.308.031.288.288,0,0,1-.133.01,1.089,1.089,0,0,0-.154-.01q-.308,0-.482-.01a1.849,1.849,0,0,0-.338.01q-.246-.021-.267-.051A.5.5,0,0,0,15.44-7.9a.779.779,0,0,1-.092-.256.227.227,0,0,0,.01-.072q.041-.205.051-.246a.337.337,0,0,0,.01-.082.61.61,0,0,1,.062-.215.111.111,0,0,0,.041-.051,2.214,2.214,0,0,1,.082-.359q.041-.113.082-.215a.359.359,0,0,0,.021-.113.208.208,0,0,1,.041-.113,1.263,1.263,0,0,0,.082-.472,1.984,1.984,0,0,1,.1-.42,1.36,1.36,0,0,0,.082-.277,1.194,1.194,0,0,0,.062-.287l.082-.246a1.264,1.264,0,0,0,.226-.308q.062-.041.113-.072t.113-.072a1.575,1.575,0,0,1,.287-.082.345.345,0,0,0,.154-.021.67.67,0,0,1,.072-.041,1.012,1.012,0,0,0,.3,0,.226.226,0,0,1,.174.041.48.48,0,0,1,.185-.031.546.546,0,0,0,.123.01,1.624,1.624,0,0,0,.267.021H18.7a1.21,1.21,0,0,1,.277-.031.227.227,0,0,0,.072.01.36.36,0,0,0,.164.01l.144-.01h.277a2.727,2.727,0,0,0,.338-.021.389.389,0,0,1,.185,0,.182.182,0,0,0,.082.021h.267a1.131,1.131,0,0,1,.246-.01.143.143,0,0,0,.062.01l.226-.021a.609.609,0,0,1,.195.021.252.252,0,0,0,.092.021.338.338,0,0,1,.174,0,.126.126,0,0,0,.072.021,1.479,1.479,0,0,1,.595.082q.328.1.41.123.164.123.174.113t.031.01a.445.445,0,0,0,.185.133.184.184,0,0,1,.1.051l.185.185a2.288,2.288,0,0,0,.226.164q.144.164.226.246l.144.113a.77.77,0,0,1,.082.072q.205.123.226.185a.13.13,0,0,0,.1.082,1.489,1.489,0,0,1,.072.226q.01.062.092.082l.041.123a1.125,1.125,0,0,0,.062.144.248.248,0,0,1,.051.154.14.14,0,0,0,.01.092.5.5,0,0,0,.051.154q.031.051.051.092.082.308.123.42t.082.215a.508.508,0,0,1,.051.154A.786.786,0,0,0,25-8.265q.123.328.174.5t.092.379a2.5,2.5,0,0,1,.072.267q.031.144.051.246a1.622,1.622,0,0,0,.062.349l.062.369q.041.164.072.308a1.467,1.467,0,0,1,.031.308,1.849,1.849,0,0,0,.144.39.93.93,0,0,0,.041.226.466.466,0,0,1,.041.154.2.2,0,0,0,.021.092,1.094,1.094,0,0,1,.072.328.252.252,0,0,0,.01.123.454.454,0,0,1,.031.174A.169.169,0,0,0,25.96-4a.493.493,0,0,0,.051.133.257.257,0,0,1,.031.133.374.374,0,0,0,.01.205A.94.94,0,0,1,26.1-3.4a.345.345,0,0,0,.021.154.4.4,0,0,1,.041.092l.021.349a.631.631,0,0,1,.041.236,1.558,1.558,0,0,0,.021.256q.041.226.062.369a1.523,1.523,0,0,0,.062.267.577.577,0,0,1,.021.133.128.128,0,0,0,.041.092.805.805,0,0,1,.082.246v.1a1.5,1.5,0,0,1-.021.246,1.088,1.088,0,0,1-.062.226,1.53,1.53,0,0,0-.062.287q-.185.144-.205.154a.67.67,0,0,1-.1.031q-.082.021-.287.062-.267.041-.308.051a.4.4,0,0,0-.082.031.779.779,0,0,1-.205-.01q0-.01-.021-.01a.639.639,0,0,1-.185.01.143.143,0,0,0-.062-.01,1.628,1.628,0,0,0-.349.021q-.144,0-.246.01T24.114,0a.91.91,0,0,0-.287.062A2.047,2.047,0,0,1,23.581.1a1.635,1.635,0,0,1-.369.031,1.19,1.19,0,0,0-.267.01Q22.72.164,22.7.164a.483.483,0,0,1-.236-.021Q22.33.1,22.207.062Zm-.349-2.912q-.021-.287-.041-.42a1.3,1.3,0,0,0-.041-.195.811.811,0,0,1-.031-.246.166.166,0,0,0-.01-.1,3.348,3.348,0,0,1-.062-.472.774.774,0,0,0-.041-.246,2.083,2.083,0,0,0-.062-.215q-.021-.051-.041-.092-.144-.123-.185-.1a.134.134,0,0,0-.062.062q-.185.123-.205.144a1.306,1.306,0,0,0-.226.144q-.1.082-.123.1l-.062.062a1.457,1.457,0,0,1-.205.154q0-.01-.021.01a1.529,1.529,0,0,0-.246.195.448.448,0,0,1-.1.092A.61.61,0,0,1,20-3.814a1.442,1.442,0,0,0-.092.123.319.319,0,0,1,.041.133.466.466,0,0,1-.041.154q.144.164.205.164a.357.357,0,0,0,.144.062.182.182,0,0,1,.082.021.658.658,0,0,1,.144.113q.021.031.041.031a.844.844,0,0,0,.236.082.576.576,0,0,1,.133.021,1.788,1.788,0,0,0,.215.051.377.377,0,0,1,.113.031,1.417,1.417,0,0,0,.379.154.452.452,0,0,0,.256-.01ZM32.52-5.537a.123.123,0,0,0,.082-.082.257.257,0,0,1,.062-.1,3.267,3.267,0,0,1,.031-.461q.031-.215.072-.441a1.43,1.43,0,0,0,.062-.246,1.548,1.548,0,0,0,.021-.287q.021-.062.041-.133t.041-.133a.5.5,0,0,1,.021-.205.084.084,0,0,0,.021-.062.9.9,0,0,0,.072-.205q-.01,0-.01-.021,0-.041.01-.133a.424.424,0,0,1,.031-.133A.809.809,0,0,0,33.1-8.4a.081.081,0,0,1-.01-.051l.062-.246A.834.834,0,0,1,33.2-8.9a.182.182,0,0,0,.021-.082.825.825,0,0,0,.021-.226.919.919,0,0,1,.031-.287q.031-.082.051-.144a2.009,2.009,0,0,1,.041-.3.558.558,0,0,0,.021-.154,1.122,1.122,0,0,0,.041-.246q.021-.1.062-.267l.041-.123a.387.387,0,0,0,.021-.123.356.356,0,0,0,.01-.144.252.252,0,0,1,.01-.123.317.317,0,0,1,.031-.144.7.7,0,0,0,.051-.144.674.674,0,0,0,.021-.164.253.253,0,0,1,.041-.144.894.894,0,0,1,.133-.205.336.336,0,0,0,.051-.041l.246-.021a1.972,1.972,0,0,1,.39-.031q.1.01.164.01a.8.8,0,0,0,.185-.01.091.091,0,0,1,.041-.01.643.643,0,0,1,.277-.021.445.445,0,0,0,.236-.021.952.952,0,0,0,.226.01.091.091,0,0,1,.041-.01.3.3,0,0,0,.154.031.475.475,0,0,1,.092-.01.364.364,0,0,1,.133.021.437.437,0,0,0,.154.021,2.344,2.344,0,0,0,.472.062.883.883,0,0,1,.144.01.883.883,0,0,0,.144.01q.185,0,.42-.01t.441-.01q.164.205.246.287a.13.13,0,0,0,.01.113.215.215,0,0,1,.031.113,2.281,2.281,0,0,0,.041.338.255.255,0,0,0,.062.113,1.131,1.131,0,0,0,.01.236.042.042,0,0,1,.01.031l.021.267a1.077,1.077,0,0,1,.051.3.576.576,0,0,0-.01.113,2.211,2.211,0,0,1,.062.328v.246q.021.062.051.133a.225.225,0,0,1-.01.174.168.168,0,0,1,.031.123.356.356,0,0,0,.01.144l.041.246a1.153,1.153,0,0,1,.041.267.636.636,0,0,1,.021.154.419.419,0,0,0,.021.133,1.152,1.152,0,0,0,.041.267,3.021,3.021,0,0,1,.1.328q.021.164.021.185a.157.157,0,0,0,.021.062l.041.287a2.151,2.151,0,0,0,.062.287,1.213,1.213,0,0,1,.062.277.419.419,0,0,0,.021.133A2.311,2.311,0,0,0,39-5.968q.1.205.082.215t.021.031q.164.164.205.164a3.984,3.984,0,0,0,.174-.656q.031-.226.072-.451a1.619,1.619,0,0,1,.062-.246.288.288,0,0,0,.01-.133.288.288,0,0,1,.01-.133.454.454,0,0,1,.021-.144,1.42,1.42,0,0,0,.041-.164q.041-.205.041-.226l.062-.226q0-.041.01-.144a.455.455,0,0,1,.031-.144q.041-.185.021-.205a.026.026,0,0,1,0-.041l.041-.246a2.129,2.129,0,0,0,.082-.246.157.157,0,0,1,.021-.062V-9.27a1.214,1.214,0,0,1,.051-.267.393.393,0,0,0,.031-.123,1.805,1.805,0,0,1,.041-.308,1.42,1.42,0,0,0,.041-.164.387.387,0,0,0,.021-.123.387.387,0,0,1,.021-.123.387.387,0,0,0,.021-.123.33.33,0,0,1,.041-.144.387.387,0,0,1,.021-.123l.041-.123a.356.356,0,0,0,.01-.144.746.746,0,0,1-.01-.123q.021-.062.041-.133t.041-.154a.364.364,0,0,0,.041-.164.454.454,0,0,1,.021-.144q.144-.226.185-.226a.683.683,0,0,1,.205-.031.143.143,0,0,0,.062.01,1.078,1.078,0,0,1,.379-.041,1.048,1.048,0,0,0,.174.021,1.659,1.659,0,0,1,.5-.062.445.445,0,0,0,.236-.021q.164.041.185.021t.062,0a.4.4,0,0,0,.154.01.848.848,0,0,1,.113-.01.81.81,0,0,0,.123.031,1.042,1.042,0,0,0,.164.01l.472.062a1.205,1.205,0,0,0,.287.041,1.089,1.089,0,0,0,.154-.01,1.258,1.258,0,0,1,.174-.01q.123,0,.267-.01a1.131,1.131,0,0,1,.267.01.523.523,0,0,1,.164.287,1.16,1.16,0,0,1-.01.215.564.564,0,0,1-.031.072.509.509,0,0,0-.051.205.116.116,0,0,1-.01.082.944.944,0,0,0-.072.3.14.14,0,0,1-.01.092,1.2,1.2,0,0,0-.144.369.236.236,0,0,1-.082.164,1.029,1.029,0,0,1-.082.318,1.914,1.914,0,0,0-.1.277A3.444,3.444,0,0,1,44.1-9.2q-.051.133-.092.256a.725.725,0,0,0-.062.195,1.115,1.115,0,0,1-.062.215A.633.633,0,0,0,43.8-8.3a.419.419,0,0,1-.021.133.494.494,0,0,0-.072.174.193.193,0,0,1-.051.113.76.76,0,0,0-.051.246.275.275,0,0,1-.01.123.314.314,0,0,0-.051.164.116.116,0,0,1-.01.082.351.351,0,0,0-.062.164.221.221,0,0,1-.041.123q-.021.082-.041.154a.9.9,0,0,1-.062.154.418.418,0,0,1-.01.205q-.031.1-.072.205-.021.082-.031.133t-.031.133a1.256,1.256,0,0,1-.144.41,1.28,1.28,0,0,1-.082.318,2.464,2.464,0,0,0-.1.318v.133a.419.419,0,0,1-.021.133,3.378,3.378,0,0,0-.133.359,1.987,1.987,0,0,1-.072.215q-.082.287-.123.39a1.581,1.581,0,0,0-.082.349.454.454,0,0,1-.021.144q-.062.164-.072.195a.227.227,0,0,0-.01.072,1.821,1.821,0,0,0-.113.318.377.377,0,0,1-.031.113.786.786,0,0,0-.051.174.787.787,0,0,1-.051.174q-.041.164-.092.318t-.092.318a.5.5,0,0,0-.062.164.337.337,0,0,1-.021.1.677.677,0,0,0-.041.113.677.677,0,0,1-.041.113.653.653,0,0,0-.082.246l-.062.246a.6.6,0,0,1-.062.154.6.6,0,0,0-.062.154q-.164.144-.246.226a.511.511,0,0,0-.154.01A.136.136,0,0,1,40.99,0q-.246.062-.328.092a.418.418,0,0,1-.144.031h-.349a.653.653,0,0,0-.164.01.143.143,0,0,1-.062.01A1,1,0,0,0,39.7.113a.143.143,0,0,1-.062.01,1.367,1.367,0,0,1-.287-.031.542.542,0,0,0-.308.031.326.326,0,0,0-.277-.041.444.444,0,0,1-.3-.021,2.284,2.284,0,0,1-.328.051A1.131,1.131,0,0,1,37.872.1.447.447,0,0,1,37.7.031a.173.173,0,0,0-.174-.01L37.319-.1Q37.2-.267,37.114-.39a2.766,2.766,0,0,0-.144-.287A1.652,1.652,0,0,1,36.857-1a.2.2,0,0,0-.051-.123.475.475,0,0,0-.041-.195q-.041-.092-.082-.174-.021-.062-.041-.133a.44.44,0,0,1-.021-.113l-.082-.267a3.377,3.377,0,0,1-.133-.359,1.989,1.989,0,0,0-.072-.215.879.879,0,0,1-.062-.205.337.337,0,0,0-.021-.1q-.021-.041-.041-.092a.219.219,0,0,1,0-.133q-.041-.1-.072-.205a1.709,1.709,0,0,1-.051-.246,1.271,1.271,0,0,1-.164-.492q-.1.185-.113.215a.563.563,0,0,1-.031.072,1.077,1.077,0,0,1-.062.236.669.669,0,0,0-.041.072.325.325,0,0,0-.01.144.2.2,0,0,1-.031.144q-.082.226-.1.267a.585.585,0,0,1-.041.205.238.238,0,0,0-.041.062l-.123.369a1.169,1.169,0,0,0-.062.205,1.17,1.17,0,0,1-.062.205q-.041.164-.082.308t-.082.328a.808.808,0,0,0-.1.287.508.508,0,0,0-.051.154.508.508,0,0,1-.051.154L34.8-.472a.456.456,0,0,1-.062.144q-.205.246-.287.349a.973.973,0,0,0-.226.021Q33.976.1,33.9.123T33.73.164a1.22,1.22,0,0,0-.256-.01.475.475,0,0,1-.092.01,2.357,2.357,0,0,1-.287-.01.645.645,0,0,0-.1-.01,1.658,1.658,0,0,1-.431-.01.584.584,0,0,0-.287.01.406.406,0,0,0-.287-.021A.471.471,0,0,1,31.679.1q-.185.021-.318.031a1.267,1.267,0,0,1-.277-.01A.292.292,0,0,1,30.91.072a.173.173,0,0,0-.174-.01Q30.531-.1,30.51-.123l-.062-.062a2.006,2.006,0,0,1-.164-.256.13.13,0,0,0-.062-.072q-.041-.164-.062-.226a.909.909,0,0,1-.072-.226.2.2,0,0,0-.051-.123A.474.474,0,0,0,30-1.282q-.041-.092-.082-.195a.328.328,0,0,1-.051-.144.4.4,0,0,0-.031-.123A.881.881,0,0,0,29.741-2a.1.1,0,0,1-.031-.072,3.126,3.126,0,0,1-.092-.328,1.535,1.535,0,0,0-.072-.246.364.364,0,0,1-.031-.1.81.81,0,0,0-.031-.123,1.341,1.341,0,0,1-.082-.144.135.135,0,0,1,0-.144.524.524,0,0,1-.051-.144q-.01-.062-.031-.144a1.684,1.684,0,0,1-.144-.349.475.475,0,0,0-.01-.092q-.01-.051-.031-.133-.062-.226-.082-.3a.9.9,0,0,0-.062-.154l-.062-.185-.041-.123a1.254,1.254,0,0,0-.082-.267l-.062-.246a1.9,1.9,0,0,0-.1-.328q-.1-.267-.123-.308a1.31,1.31,0,0,0-.082-.308.387.387,0,0,1-.021-.123A.6.6,0,0,0,28.4-6.5a1.282,1.282,0,0,0-.062-.256.458.458,0,0,1-.021-.236q-.082-.205-.092-.226a.143.143,0,0,1-.01-.062,1.315,1.315,0,0,0-.082-.287l-.062-.308q-.021-.082-.041-.154T27.967-8.2a.193.193,0,0,1-.051-.113.762.762,0,0,0-.031-.133L27.8-8.818A.941.941,0,0,0,27.6-9.29a1.077,1.077,0,0,0-.062-.236A.67.67,0,0,1,27.5-9.6a.636.636,0,0,1-.021-.154.346.346,0,0,0-.041-.154.7.7,0,0,0-.051-.144.317.317,0,0,1-.031-.144.668.668,0,0,1-.062-.185.182.182,0,0,0-.021-.082.986.986,0,0,1-.062-.195.165.165,0,0,0-.021-.072,1.383,1.383,0,0,1-.031-.164.328.328,0,0,0-.051-.144.731.731,0,0,1-.1-.195q0-.031-.041-.031a1.469,1.469,0,0,1,.031-.226.073.073,0,0,0-.01-.062.319.319,0,0,0,.051-.133.786.786,0,0,1,.051-.174,1.146,1.146,0,0,1,.123-.072.273.273,0,0,1,.123-.031q.287.041.349.041a.293.293,0,0,0,.154,0,.558.558,0,0,1,.154-.021,2.046,2.046,0,0,1,.246-.041.947.947,0,0,1,.133.01,1.089,1.089,0,0,0,.154.01q.144.041.164.051a.143.143,0,0,0,.062.01.221.221,0,0,0,.133,0,.221.221,0,0,1,.133,0,.337.337,0,0,1,.1.021.387.387,0,0,0,.123.021.9.9,0,0,0,.195-.021.468.468,0,0,1,.195,0,.548.548,0,0,0,.246-.01.117.117,0,0,1,.144.051.221.221,0,0,1,.123-.041H30.3q.226.021.226,0t.041-.041l.267-.021q.226.041.267.1a.138.138,0,0,0,.123.062,2.223,2.223,0,0,0,.113.277.567.567,0,0,1,.051.113,1.3,1.3,0,0,0,.062.472.953.953,0,0,0,.01.215.042.042,0,0,1,.01.031,1.152,1.152,0,0,0,.041.267,1.806,1.806,0,0,1,.031.359.4.4,0,0,0,.01.154.719.719,0,0,1,.041.226.586.586,0,0,0,.021.226.386.386,0,0,0,.031.154.225.225,0,0,1-.01.174.125.125,0,0,1,.031.113.288.288,0,0,0,.01.133.641.641,0,0,1,.051.195q-.01.01.01.051a1.153,1.153,0,0,0,.041.267,1.7,1.7,0,0,0,.021.308.48.48,0,0,1,.031.185.116.116,0,0,0,.01.082.524.524,0,0,1,.082.195.864.864,0,0,0,.021.154.958.958,0,0,0,.031.164.143.143,0,0,1,.01.062,1.385,1.385,0,0,1,.031.164,1.383,1.383,0,0,0,.031.164q.021.062.041.113t.041.113l.062.369q.041.287.041.328a.315.315,0,0,0,.041.123.569.569,0,0,1,.051.133q.01.051.092.092ZM52.266-9.5q-.185.1-.195.113a.042.042,0,0,0-.01.031,2.626,2.626,0,0,1-.472.144.866.866,0,0,0-.267.082,1.689,1.689,0,0,0-.349.226,2.983,2.983,0,0,1-.308.246,2.233,2.233,0,0,1-.308.451.417.417,0,0,0-.123.308.349.349,0,0,1,.062.154.2.2,0,0,0,.021.092.337.337,0,0,0,.021.1.328.328,0,0,1,0,.164.477.477,0,0,1,.072.092.477.477,0,0,0,.072.092.719.719,0,0,1,.1.205q.041.123.082.226a.333.333,0,0,1,.164.144.564.564,0,0,0,.144.164,1.306,1.306,0,0,0,.144.226q.123.185.144.185a.829.829,0,0,1,.226.328.448.448,0,0,0,.092.1,1.119,1.119,0,0,1,.092.082l.164.246L52.061-5a.883.883,0,0,0,.062.133.67.67,0,0,1,.041.072.566.566,0,0,0,.092.205.069.069,0,0,1,.031.062l.062.267a.843.843,0,0,1,.092.318.288.288,0,0,0,.01.133q.062.164.082.226l.041.226a6.042,6.042,0,0,0-.205.656.864.864,0,0,1-.174.256.121.121,0,0,0-.051.113q-.164.123-.174.164t-.051.021a1.113,1.113,0,0,0-.123.205q0,.021-.041.062a.328.328,0,0,1-.113.1.283.283,0,0,0-.113.123.493.493,0,0,0-.308.267,1.264,1.264,0,0,1-.205.154.239.239,0,0,0-.1.113.436.436,0,0,0-.277.174.528.528,0,0,1-.256.195q-.062.062-.123.113t-.123.113q-.123.062-.133.1a.13.13,0,0,1-.031.062l-.154.051a.2.2,0,0,0-.072.051q-.226.123-.246.205a.426.426,0,0,0-.226.092.638.638,0,0,1-.185.113,1.785,1.785,0,0,1-.236.185.252.252,0,0,1-.113.041.653.653,0,0,0-.267.082L48.39.533a1.508,1.508,0,0,0-.164.062l-.082.041a.963.963,0,0,0-.174.072.184.184,0,0,1-.092.031A.329.329,0,0,1,47.683.7a.36.36,0,0,0-.154-.062q-.041-.082-.092-.164A.329.329,0,0,0,47.3.349a1.435,1.435,0,0,1-.1-.205q-.082-.1-.113-.144a.089.089,0,0,0-.072-.041l-.144-.287A1.342,1.342,0,0,0,46.647-.7a1.184,1.184,0,0,1-.1-.205.059.059,0,0,0-.021-.041q-.041-.062-.072-.1a.359.359,0,0,1-.051-.1.634.634,0,0,1-.185-.256.752.752,0,0,0-.164-.256l-.144-.226q-.123-.185-.144-.205t0-.062a1.919,1.919,0,0,1-.123-.246.848.848,0,0,1-.1-.267q-.041-.164-.021-.185a.239.239,0,0,0,.041-.062,1.014,1.014,0,0,0,.041-.174.165.165,0,0,1,.021-.072.454.454,0,0,1,.185-.144,2.984,2.984,0,0,1,.328-.123.456.456,0,0,0,.144-.062.973.973,0,0,0,.277-.1.36.36,0,0,1,.154-.062q.226-.123.267-.154a.359.359,0,0,1,.1-.051.179.179,0,0,1,.092-.051.323.323,0,0,0,.113-.051.448.448,0,0,0,.1-.092q.041-.051.082-.113a.566.566,0,0,0,.133-.164q.01-.041.051-.021a2.366,2.366,0,0,1,.154-.369.332.332,0,0,0,.031-.226,1.122,1.122,0,0,0-.041-.246.547.547,0,0,0-.1-.144.17.17,0,0,1-.041-.164q-.164-.226-.205-.277a.362.362,0,0,0-.123-.092.919.919,0,0,1-.205-.267.842.842,0,0,0-.164-.164.134.134,0,0,1-.062-.062.672.672,0,0,0-.082-.1l-.082-.082a1.178,1.178,0,0,0-.113-.205q-.01,0-.01-.021-.185-.144-.195-.185a.4.4,0,0,0-.031-.082q-.144-.185-.185-.226a.672.672,0,0,1-.082-.1,1.106,1.106,0,0,1-.174-.226,1.106,1.106,0,0,0-.174-.226.605.605,0,0,0-.226-.451.7.7,0,0,1-.113-.226.073.073,0,0,0-.01-.062.907.907,0,0,1-.051-.318q.01-.113.01-.256a.646.646,0,0,1,.021-.308q.021-.1.041-.226a1.62,1.62,0,0,1,.062-.246,1.108,1.108,0,0,1,.185-.369q.1-.164.133-.205t.072-.1L46-10.695l.072-.072q.164-.205.226-.267a.391.391,0,0,0,.144-.133.133.133,0,0,1,.123-.072l.246-.287a1.553,1.553,0,0,1,.144-.113A.111.111,0,0,0,47-11.689a.883.883,0,0,1,.226-.226,1.866,1.866,0,0,0,.185-.123.239.239,0,0,1,.062-.041,1.113,1.113,0,0,1,.205-.123q.144-.123.185-.154a.539.539,0,0,1,.082-.051,1.408,1.408,0,0,1,.267-.082,1.737,1.737,0,0,1,.349-.185q.1-.123.154-.123a.128.128,0,0,0,.092-.041L49-12.91a.169.169,0,0,1,.051-.01.684.684,0,0,0,.267-.144,2.143,2.143,0,0,0,.338-.123.6.6,0,0,1,.154-.062.719.719,0,0,0,.267,0,.084.084,0,0,1,.062-.021q.123.021.226.041a.5.5,0,0,1,.154.051l.154.092a.362.362,0,0,1,.123.092.448.448,0,0,0,.1.092q.082.205.113.287a.7.7,0,0,0,.072.144.565.565,0,0,1,.1.226l.144.308.205.349a1.316,1.316,0,0,0,.144.308.8.8,0,0,1,.1.185,2.254,2.254,0,0,1,.1.267.157.157,0,0,0,.021.062.5.5,0,0,1,.062.164.182.182,0,0,0,.021.082q.123.267.144.328t.062.164a1.229,1.229,0,0,1,.041.164.157.157,0,0,0,.021.062q.021.123.031.195A.193.193,0,0,1,52.266-9.5Zm6.17-6.583A.258.258,0,0,1,58.59-16q.051.062.113.123a2.634,2.634,0,0,1,.1.451,3.58,3.58,0,0,0,.01.359,1.448,1.448,0,0,1,.01.195.679.679,0,0,1-.01.144.431.431,0,0,0-.01.1.252.252,0,0,0-.01.123.883.883,0,0,1,.01.144,1.486,1.486,0,0,1,0,.349,1,1,0,0,1-.082.226l-.144.205a.584.584,0,0,0-.1.123.134.134,0,0,1-.062.062q-.267.1-.379.133t-.215.051a1.131,1.131,0,0,0-.226.041.848.848,0,0,0-.113.01.847.847,0,0,1-.113.01l-.246.021a1.11,1.11,0,0,1-.185-.031.091.091,0,0,0-.041-.01,1.232,1.232,0,0,1-.308.031q-.082-.01-.185-.031a2.334,2.334,0,0,1-.3-.01.314.314,0,0,0-.133.01,1.333,1.333,0,0,0-.349,0h-.41a1.987,1.987,0,0,0-.195-.185q-.01,0-.031-.041l-.185-.185a1.944,1.944,0,0,0-.062-.472l-.041-.41v-.267a1.439,1.439,0,0,1,.041-.41.615.615,0,0,1,.041-.3.176.176,0,0,0,.041-.113q.123-.185.144-.226a.321.321,0,0,1,.062-.082l.369-.164.308-.1a.8.8,0,0,0,.1-.041h.308l.287-.062.174-.041a.805.805,0,0,1,.174-.021.747.747,0,0,1,.123.01.747.747,0,0,0,.123.01.747.747,0,0,0,.123-.01.883.883,0,0,1,.144-.01,1.966,1.966,0,0,1,.3.021.643.643,0,0,0,.277-.021.525.525,0,0,1,.226.01,1.46,1.46,0,0,1,.267.072ZM58.744-.41a.148.148,0,0,1-.041.154.1.1,0,0,0-.041.113l-.287.062a1.464,1.464,0,0,1-.369.123,1.117,1.117,0,0,1-.338.031q-.174-.01-.4-.031-.226.021-.318.021h-.482q-.205.021-.226.021a1.166,1.166,0,0,0-.3.031.722.722,0,0,1-.154.031H55.5L55.216.082a1.321,1.321,0,0,0-.164.01.579.579,0,0,1-.185-.01Q54.765.041,54.7.01a.317.317,0,0,0-.144-.031,1.41,1.41,0,0,1-.1-.256.07.07,0,0,0-.021-.051.311.311,0,0,1-.051-.195A1.582,1.582,0,0,0,54.4-.7a.747.747,0,0,0-.01-.123.645.645,0,0,1-.01-.1.387.387,0,0,1,.021-.123.454.454,0,0,0,.021-.144,1.3,1.3,0,0,0,.031-.185q.01-.1.031-.205a2.2,2.2,0,0,0,.021-.256v-.133a.419.419,0,0,0,.021-.133.636.636,0,0,1,.021-.154.46.46,0,0,0,0-.195.487.487,0,0,1-.021-.133,1.088,1.088,0,0,1,.01-.123,1.5,1.5,0,0,0,.01-.185q0-.144-.01-.267t-.01-.246a1.727,1.727,0,0,1,.041-.308v-.267a4.182,4.182,0,0,0,.021-.451q0-.267-.021-.492v-.226q.021-.246.031-.379a1.267,1.267,0,0,0-.01-.277.576.576,0,0,0-.01-.113.576.576,0,0,1-.01-.113.95.95,0,0,1-.021-.185V-6.4a.664.664,0,0,0-.01-.154.227.227,0,0,1-.01-.072v-.369a.692.692,0,0,1,0-.256.126.126,0,0,0,.021-.072,2.951,2.951,0,0,1,.01-.318,1.089,1.089,0,0,0,.01-.154v-.226a2.542,2.542,0,0,0-.021-.431,1.43,1.43,0,0,1-.062-.246V-9a1.6,1.6,0,0,0-.01-.236.314.314,0,0,1,.01-.133q0-.144-.01-.287t-.01-.308a.5.5,0,0,1,0-.205.387.387,0,0,0,.021-.123v-.574a1.741,1.741,0,0,1,0-.533.6.6,0,0,1,.082-.246,1,1,0,0,1,.082-.226,1,1,0,0,1,.369-.328.83.83,0,0,0,.174-.092.222.222,0,0,1,.113-.051,1.44,1.44,0,0,1,.246-.041,2.487,2.487,0,0,1,.451,0,1.667,1.667,0,0,0,.451-.021.514.514,0,0,1,.246.01.155.155,0,0,0,.144-.01,2.118,2.118,0,0,1,.338-.01.847.847,0,0,0,.113.01.473.473,0,0,1,.226-.021h.369a1.176,1.176,0,0,1,.144.01.2.2,0,0,1,.123.051.374.374,0,0,1,.226-.041.372.372,0,0,1,.092.082.133.133,0,0,0,.113.041.884.884,0,0,0,.144.246q.062.185.144.39a.662.662,0,0,1,.041.246,2.488,2.488,0,0,0,.021.308,1.321,1.321,0,0,0,.01.164,1.176,1.176,0,0,1,.01.144q0,.1-.01.205t-.031.205q-.021.308-.021.5a3.434,3.434,0,0,1-.021.379q-.021.1-.031.205t-.01.205a.558.558,0,0,0,.021.154.558.558,0,0,1,.021.154,2.9,2.9,0,0,1-.021.338q-.021.174-.041.359-.021.164-.041.318a2.571,2.571,0,0,0-.021.338.645.645,0,0,0,.01.1.747.747,0,0,1,.01.123,1.258,1.258,0,0,1-.01.174,1.258,1.258,0,0,0-.01.174q0,.1.01.205a.69.69,0,0,1-.01.205.9.9,0,0,1-.021.195.9.9,0,0,0-.021.195,1.318,1.318,0,0,0,0,.328,2.643,2.643,0,0,1,.021.328,1.043,1.043,0,0,1-.021.205.518.518,0,0,0,0,.205,1.7,1.7,0,0,1,.041.472.87.87,0,0,0,0,.267,1.626,1.626,0,0,1,.01.3.848.848,0,0,0-.01.113V-3.3a.973.973,0,0,1-.021.226.468.468,0,0,1,.041.338.405.405,0,0,0,.041.318.907.907,0,0,0-.031.308,1.135,1.135,0,0,0,.051.287l.021.554q.021.123.031.256t.01.236l-.021.226ZM66.78-15.853a.128.128,0,0,1,.041.092.576.576,0,0,0,.021.133,1.026,1.026,0,0,1,0,.41v.246q-.021.308-.041.472a1,1,0,0,0,0,.287.373.373,0,0,1,0,.174.487.487,0,0,0-.021.133.747.747,0,0,0,.01.123.645.645,0,0,1,.01.1.9.9,0,0,1-.021.195.9.9,0,0,0-.021.195,4.749,4.749,0,0,0,0,.882.247.247,0,0,0-.062.246.107.107,0,0,0,.113.021.44.44,0,0,1,.113-.021.352.352,0,0,0,.144-.021.228.228,0,0,1,.1-.021,1.252,1.252,0,0,1,.42-.01.7.7,0,0,0,.359-.031.752.752,0,0,0,.205.051.212.212,0,0,1,.164.113.741.741,0,0,1,.144.349q.123.205.1.226a.084.084,0,0,0-.021.062.538.538,0,0,1,.031.205.883.883,0,0,0-.01.144,1.618,1.618,0,0,1-.031.195.227.227,0,0,0-.01.072.748.748,0,0,0-.01.215.357.357,0,0,1-.031.195,1.153,1.153,0,0,1,.041.267,2.523,2.523,0,0,0-.031.656,1.407,1.407,0,0,1-.01.451,1.528,1.528,0,0,0-.031.154.527.527,0,0,0,.01.174q-.082.144-.072.174t-.031.051a.148.148,0,0,1-.051.123.11.11,0,0,0-.031.123.35.35,0,0,0-.123.051q-.041.031-.123-.01a1.152,1.152,0,0,1-.492.021h-.513a.959.959,0,0,0-.369-.062.762.762,0,0,1-.185.021.283.283,0,0,0-.031.164,1.5,1.5,0,0,1,.01.185v.369q0,.185-.01.338t-.031.359a2.951,2.951,0,0,0,.01.318.947.947,0,0,1,.01.133,1.559,1.559,0,0,1-.01.4.748.748,0,0,0,.051.4.969.969,0,0,1,0,.3.252.252,0,0,0-.021.092,2.282,2.282,0,0,0,.041.338q.021.072.041.133a.966.966,0,0,0,.01.205.143.143,0,0,1,.01.062l.041.123a.387.387,0,0,1,.021.123.487.487,0,0,1,.174.1A.539.539,0,0,1,66.842-4a.754.754,0,0,1,.369.185.533.533,0,0,1,.164.021l.185.062a1.844,1.844,0,0,0,.39,0,1.406,1.406,0,0,1,.267-.021l.267-.041a.5.5,0,0,0,.185-.041.084.084,0,0,1,.062-.021.855.855,0,0,0,.3-.062.6.6,0,0,1,.154-.062.653.653,0,0,0,.164-.01A.143.143,0,0,1,69.4-4a1.277,1.277,0,0,0,.256.123q.031,0,.031.041a.2.2,0,0,1,.021.144,1,1,0,0,1-.062.1v.267a.5.5,0,0,1-.041.185,1.879,1.879,0,0,1-.1.246.364.364,0,0,0-.031.1.81.81,0,0,1-.031.123,1.629,1.629,0,0,0-.123.338,1.722,1.722,0,0,1-.062.236,1.454,1.454,0,0,0-.062.185.462.462,0,0,1-.082.164q-.082.287-.1.41a.641.641,0,0,0-.051.195q.01.01-.01.031a2.719,2.719,0,0,0-.072.308.759.759,0,0,1-.051.185l-.082.287a2.309,2.309,0,0,1-.144.246q-.185.164-.205.174a.292.292,0,0,0-.062.051,1.311,1.311,0,0,0-.205.041.257.257,0,0,0-.1.062.366.366,0,0,0-.267.082.991.991,0,0,0-.246-.01q-.123.01-.328.01a.8.8,0,0,0-.185.01.091.091,0,0,1-.041.01,1.041,1.041,0,0,0-.287-.041,2.183,2.183,0,0,0-.226-.021.777.777,0,0,1-.308-.041,2.11,2.11,0,0,0-.277-.031,2.11,2.11,0,0,1-.277-.031q-.123-.021-.256-.031T65.057.123q-.205-.1-.215-.113A.042.042,0,0,0,64.811,0l-.246-.123a.8.8,0,0,1-.256-.062.111.111,0,0,0-.051-.041q-.328-.144-.369-.287-.205-.082-.205-.1t-.041-.041q-.164-.144-.164-.185a1.889,1.889,0,0,0-.185-.195.2.2,0,0,1-.062-.113q-.164-.226-.174-.246a.292.292,0,0,0-.051-.062.255.255,0,0,1-.062-.113.473.473,0,0,0-.062-.133,3.513,3.513,0,0,1-.154-.441,1.617,1.617,0,0,0-.072-.236q-.021-.1-.031-.174T62.6-2.728a1.3,1.3,0,0,1-.031-.185,1.051,1.051,0,0,0-.051-.226l-.021-.226a.562.562,0,0,1-.072-.226.337.337,0,0,0,.01-.082.586.586,0,0,1,0-.308.266.266,0,0,1-.031-.215q.031-.113.051-.215a1.258,1.258,0,0,0-.01-.174,1.089,1.089,0,0,1-.01-.154.762.762,0,0,1,.021-.185.762.762,0,0,0,.021-.185.634.634,0,0,0,.01-.195,1.766,1.766,0,0,1-.01-.195v-.636a2.183,2.183,0,0,0,.021-.226v-.349a1.089,1.089,0,0,1,.01-.154,1.089,1.089,0,0,0,.01-.154,1.2,1.2,0,0,1-.01-.256,1.089,1.089,0,0,0,.01-.154v-.287a3.343,3.343,0,0,1-.041-.4,1.435,1.435,0,0,0-.021-.236q-.164.041-.369.082a4.08,4.08,0,0,1-.431.062,1.258,1.258,0,0,1-.174-.01.848.848,0,0,0-.113-.01.737.737,0,0,1-.195-.021q-.072-.021-.133-.041a2.91,2.91,0,0,0-.267-.164.379.379,0,0,0-.1-.154.379.379,0,0,1-.1-.154.331.331,0,0,1-.01-.215.976.976,0,0,0,.031-.256v-.185a.95.95,0,0,0-.021-.185.717.717,0,0,0,.021-.174.318.318,0,0,0-.021-.133.76.76,0,0,1-.051-.226.213.213,0,0,0,.01-.082,2.183,2.183,0,0,1-.021-.226v-.1q-.021-.164-.031-.318t-.01-.3a.524.524,0,0,1,0-.226.084.084,0,0,0,.021-.062,1.13,1.13,0,0,1-.01-.246.378.378,0,0,0-.01-.144q.041-.185.062-.185t.041-.041l.267-.287a.293.293,0,0,0,.215,0,.685.685,0,0,1,.236-.041l.267.021a.862.862,0,0,1,.39.082,1.04,1.04,0,0,1,.287.021.182.182,0,0,0,.082.021.132.132,0,0,0,.1,0,.255.255,0,0,1,.144,0,.438.438,0,0,0-.021-.226,2.235,2.235,0,0,1-.01-.379,1.95,1.95,0,0,0-.01-.359v-.328a1.566,1.566,0,0,1,.01-.256.093.093,0,0,0-.01-.072q-.041-.205-.041-.226a.576.576,0,0,0-.021-.267.2.2,0,0,0-.01-.144.7.7,0,0,1-.051-.144.4.4,0,0,1-.01-.154.4.4,0,0,0-.01-.154,1.064,1.064,0,0,0-.041-.133.3.3,0,0,1-.021-.113.864.864,0,0,0-.021-.144,1.023,1.023,0,0,1-.021-.123.783.783,0,0,0,.01-.205.116.116,0,0,1,.01-.082.258.258,0,0,1,.1-.144.407.407,0,0,0,.123-.144,1.084,1.084,0,0,0,.349.031,3,3,0,0,0,.328-.031.166.166,0,0,1,.1-.01.747.747,0,0,0,.123.01.634.634,0,0,0,.195.01,1.582,1.582,0,0,1,.174-.01l.123.041q.062.021.144.041.205-.021.287-.021a.506.506,0,0,0,.164.01.073.073,0,0,1,.062.01.829.829,0,0,0,.164-.01.116.116,0,0,1,.082.01,2.747,2.747,0,0,0,.277.021.493.493,0,0,0,.154-.021h.215A.258.258,0,0,0,65.632-16a1.618,1.618,0,0,1,.195.031q.031.01.072-.031a.111.111,0,0,0,.1.031.883.883,0,0,1,.144-.01.848.848,0,0,1,.113.01.847.847,0,0,0,.113.01.526.526,0,0,0,.174.01.106.106,0,0,1,.113.072Zm8.487-.226a.258.258,0,0,1,.154.082q.051.062.113.123a2.634,2.634,0,0,1,.1.451,3.58,3.58,0,0,0,.01.359,1.448,1.448,0,0,1,.01.195.679.679,0,0,1-.01.144.431.431,0,0,0-.01.1.252.252,0,0,0-.01.123.883.883,0,0,1,.01.144,1.486,1.486,0,0,1,0,.349,1,1,0,0,1-.082.226l-.144.205a.584.584,0,0,0-.1.123.134.134,0,0,1-.062.062q-.267.1-.379.133t-.215.051a1.131,1.131,0,0,0-.226.041.848.848,0,0,0-.113.01.847.847,0,0,1-.113.01l-.246.021a1.11,1.11,0,0,1-.185-.031.091.091,0,0,0-.041-.01,1.232,1.232,0,0,1-.308.031q-.082-.01-.185-.031a2.334,2.334,0,0,1-.3-.01.314.314,0,0,0-.133.01,1.333,1.333,0,0,0-.349,0h-.41a1.987,1.987,0,0,0-.195-.185q-.01,0-.031-.041l-.185-.185a1.944,1.944,0,0,0-.062-.472l-.041-.41v-.267a1.439,1.439,0,0,1,.041-.41.615.615,0,0,1,.041-.3.176.176,0,0,0,.041-.113q.123-.185.144-.226a.321.321,0,0,1,.062-.082l.369-.164.308-.1a.8.8,0,0,0,.1-.041h.308l.287-.062.174-.041a.805.805,0,0,1,.174-.021.747.747,0,0,1,.123.01.747.747,0,0,0,.123.01.747.747,0,0,0,.123-.01.883.883,0,0,1,.144-.01,1.966,1.966,0,0,1,.3.021.643.643,0,0,0,.277-.021.525.525,0,0,1,.226.01,1.46,1.46,0,0,1,.267.072ZM75.575-.41a.148.148,0,0,1-.041.154.1.1,0,0,0-.041.113l-.287.062a1.464,1.464,0,0,1-.369.123A1.117,1.117,0,0,1,74.5.072q-.174-.01-.4-.031-.226.021-.318.021H73.3q-.205.021-.226.021a1.166,1.166,0,0,0-.3.031.722.722,0,0,1-.154.031h-.287L72.048.082a1.321,1.321,0,0,0-.164.01A.579.579,0,0,1,71.7.082Q71.6.041,71.535.01a.317.317,0,0,0-.144-.031,1.41,1.41,0,0,1-.1-.256.07.07,0,0,0-.021-.051.311.311,0,0,1-.051-.195,1.582,1.582,0,0,0,.01-.174.747.747,0,0,0-.01-.123.645.645,0,0,1-.01-.1.387.387,0,0,1,.021-.123.454.454,0,0,0,.021-.144,1.3,1.3,0,0,0,.031-.185q.01-.1.031-.205a2.2,2.2,0,0,0,.021-.256v-.133A.419.419,0,0,0,71.35-2.1a.636.636,0,0,1,.021-.154.46.46,0,0,0,0-.195.487.487,0,0,1-.021-.133,1.088,1.088,0,0,1,.01-.123,1.5,1.5,0,0,0,.01-.185q0-.144-.01-.267T71.35-3.4a1.727,1.727,0,0,1,.041-.308v-.267a4.182,4.182,0,0,0,.021-.451q0-.267-.021-.492v-.226q.021-.246.031-.379a1.267,1.267,0,0,0-.01-.277.576.576,0,0,0-.01-.113.576.576,0,0,1-.01-.113.95.95,0,0,1-.021-.185V-6.4a.664.664,0,0,0-.01-.154.227.227,0,0,1-.01-.072v-.369a.692.692,0,0,1,0-.256.126.126,0,0,0,.021-.072,2.951,2.951,0,0,1,.01-.318,1.089,1.089,0,0,0,.01-.154v-.226a2.542,2.542,0,0,0-.021-.431,1.43,1.43,0,0,1-.062-.246V-9a1.6,1.6,0,0,0-.01-.236.314.314,0,0,1,.01-.133q0-.144-.01-.287t-.01-.308a.5.5,0,0,1,0-.205.387.387,0,0,0,.021-.123v-.574a1.741,1.741,0,0,1,0-.533.6.6,0,0,1,.082-.246,1,1,0,0,1,.082-.226,1,1,0,0,1,.369-.328.83.83,0,0,0,.174-.092.222.222,0,0,1,.113-.051,1.44,1.44,0,0,1,.246-.041,2.487,2.487,0,0,1,.451,0,1.667,1.667,0,0,0,.451-.021.514.514,0,0,1,.246.01.155.155,0,0,0,.144-.01,2.118,2.118,0,0,1,.338-.01.847.847,0,0,0,.113.01.473.473,0,0,1,.226-.021h.369a1.176,1.176,0,0,1,.144.01.2.2,0,0,1,.123.051.374.374,0,0,1,.226-.041.372.372,0,0,1,.092.082.133.133,0,0,0,.113.041.884.884,0,0,0,.144.246q.062.185.144.39a.662.662,0,0,1,.041.246,2.488,2.488,0,0,0,.021.308,1.321,1.321,0,0,0,.01.164,1.176,1.176,0,0,1,.01.144q0,.1-.01.205t-.031.205q-.021.308-.021.5A3.434,3.434,0,0,1,75.7-9.5q-.021.1-.031.205t-.01.205a.558.558,0,0,0,.021.154.558.558,0,0,1,.021.154,2.9,2.9,0,0,1-.021.338q-.021.174-.041.359-.021.164-.041.318a2.571,2.571,0,0,0-.021.338.645.645,0,0,0,.01.1.747.747,0,0,1,.01.123,1.258,1.258,0,0,1-.01.174,1.258,1.258,0,0,0-.01.174q0,.1.01.205a.69.69,0,0,1-.01.205.9.9,0,0,1-.021.195.9.9,0,0,0-.021.195,1.318,1.318,0,0,0,0,.328,2.643,2.643,0,0,1,.021.328,1.043,1.043,0,0,1-.021.205.518.518,0,0,0,0,.205,1.7,1.7,0,0,1,.041.472.87.87,0,0,0,0,.267,1.626,1.626,0,0,1,.01.3.848.848,0,0,0-.01.113V-3.3a.973.973,0,0,1-.021.226.468.468,0,0,1,.041.338.405.405,0,0,0,.041.318.907.907,0,0,0-.031.308,1.135,1.135,0,0,0,.051.287l.021.554q.021.123.031.256t.01.236L75.7-.554Zm7.2-5.147a3.2,3.2,0,0,0,.164-.656q.021-.226.062-.451a1.11,1.11,0,0,1,.031-.185.143.143,0,0,0,.01-.062.346.346,0,0,0,.041-.154V-7.2q.041-.185.051-.215a.227.227,0,0,0,.01-.072.427.427,0,0,1,.041-.246,1.3,1.3,0,0,0,.051-.236q-.01.01-.01-.01,0-.041.01-.133a.761.761,0,0,1,.031-.154.788.788,0,0,0,.01-.205.091.091,0,0,1-.01-.041l.062-.246q.021-.164.031-.215a.366.366,0,0,1,.031-.092,1.15,1.15,0,0,0,.031-.256.081.081,0,0,1-.01-.051.561.561,0,0,1,.021-.123q.021-.082.041-.144a1.342,1.342,0,0,1,.021-.3q.021-.072.041-.174a.848.848,0,0,1,.01-.113.947.947,0,0,0,.01-.133q.041-.164.062-.267l.062-.246a.883.883,0,0,0-.01-.144.252.252,0,0,1,.01-.123.317.317,0,0,1,.031-.144.7.7,0,0,0,.051-.144.95.95,0,0,0,.021-.185.454.454,0,0,1,.021-.144A1.212,1.212,0,0,1,84-12l.226-.021a1.549,1.549,0,0,1,.39-.051q.1.01.164.01a.571.571,0,0,0,.246-.041.6.6,0,0,1,.267-.021.322.322,0,0,0,.226-.041.833.833,0,0,0,.226.031.091.091,0,0,1,.041-.01.426.426,0,0,0,.154.01.576.576,0,0,1,.113-.01.387.387,0,0,1,.123.021.533.533,0,0,0,.164.021l.451.041a.883.883,0,0,1,.144.01.883.883,0,0,0,.144.01q.185-.021.42-.031t.441-.01a.439.439,0,0,1,.185.287.5.5,0,0,1,0,.215.67.67,0,0,0-.041.072l-.041.308a.688.688,0,0,0-.072.277.193.193,0,0,1-.01.113,1.3,1.3,0,0,0-.123.379.186.186,0,0,1-.082.154,1.324,1.324,0,0,1-.072.338,2.561,2.561,0,0,0-.092.3,1.782,1.782,0,0,1-.072.236.081.081,0,0,0-.01.051.639.639,0,0,0-.1.205.084.084,0,0,1-.021.062.636.636,0,0,0-.041.123q-.021.082-.041.144a1.8,1.8,0,0,0-.1.41.786.786,0,0,0-.051.174.508.508,0,0,1-.051.154,1.131,1.131,0,0,0-.062.226,1.485,1.485,0,0,1-.051.236.042.042,0,0,0-.01.031.556.556,0,0,1-.062.267,1.131,1.131,0,0,1-.041.226,1.384,1.384,0,0,0-.031.164.328.328,0,0,1-.051.144.464.464,0,0,1-.01.215,1.987,1.987,0,0,1-.072.215.576.576,0,0,0-.021.133.319.319,0,0,1-.041.133,1.186,1.186,0,0,1-.072.3A.477.477,0,0,1,86.5-5.7a.909.909,0,0,1-.041.287q-.041.123-.082.267-.041.226-.051.277a.576.576,0,0,0-.01.113l-.185.574a2.8,2.8,0,0,1-.062.308.337.337,0,0,0-.021.1,1.117,1.117,0,0,0-.092.359.4.4,0,0,1-.01.154q-.062.164-.072.195a.227.227,0,0,0-.01.072,1.125,1.125,0,0,1-.051.195.237.237,0,0,0-.031.051,1.115,1.115,0,0,0-.062.215,1.722,1.722,0,0,1-.062.236.842.842,0,0,0-.072.174.948.948,0,0,1-.031.113q-.041.205-.062.287t-.041.154q-.021.072-.041.133a1.722,1.722,0,0,0-.062.236,1.115,1.115,0,0,1-.062.215.971.971,0,0,1-.051.174.081.081,0,0,0-.01.051,1.4,1.4,0,0,1-.113.369.245.245,0,0,0-.031.185q-.164.185-.185.174T84.883,0a.509.509,0,0,0-.267.021q-.328.1-.472.144a1.077,1.077,0,0,0-.39.021,2.075,2.075,0,0,1-.277-.01.475.475,0,0,0-.092-.01,1.658,1.658,0,0,1-.431-.01.466.466,0,0,0-.287.031.351.351,0,0,0-.277-.01.464.464,0,0,1-.318-.01,3.061,3.061,0,0,1-.328.051A.991.991,0,0,1,81.5.205.924.924,0,0,1,81.3.144.264.264,0,0,0,81.13.123q-.226-.144-.246-.164L80.822-.1q-.123-.205-.144-.246a.066.066,0,0,0-.062-.041.859.859,0,0,0-.051-.205q-.01,0-.01-.041a.871.871,0,0,1-.092-.246A.164.164,0,0,0,80.392-1a.341.341,0,0,0-.051-.185,1.162,1.162,0,0,1-.092-.185.506.506,0,0,1-.051-.164.4.4,0,0,0-.031-.123.881.881,0,0,0-.092-.256.084.084,0,0,1-.031-.051q-.1-.308-.185-.574a.377.377,0,0,1-.031-.113.762.762,0,0,0-.031-.133.827.827,0,0,1-.072-.133.176.176,0,0,1,.01-.154.35.35,0,0,1-.072-.144q-.01-.062-.031-.144a1.4,1.4,0,0,1-.164-.349,1.913,1.913,0,0,0-.1-.349,2.029,2.029,0,0,0-.1-.308,1.6,1.6,0,0,0-.123-.328Q79.1-4.881,79.1-4.9a.157.157,0,0,0-.021-.062L79-5.209l-.123-.328-.082-.308a.688.688,0,0,0-.092-.246.069.069,0,0,1-.031-.062.419.419,0,0,1-.021-.133.419.419,0,0,0-.021-.133q-.041-.144-.082-.256a.458.458,0,0,1-.021-.236q-.082-.205-.092-.226a.143.143,0,0,1-.01-.062l-.082-.287a.932.932,0,0,1-.082-.308,1.015,1.015,0,0,0-.051-.154q-.031-.072-.072-.174a.364.364,0,0,1-.031-.1.524.524,0,0,0-.051-.144,1.339,1.339,0,0,0-.062-.205.286.286,0,0,1-.021-.123,1.057,1.057,0,0,0-.226-.513,1.656,1.656,0,0,0-.062-.287l-.041-.082a1.363,1.363,0,0,0-.082-.328.638.638,0,0,1-.082-.226.787.787,0,0,1-.062-.236.14.14,0,0,0-.021-.092,1.4,1.4,0,0,1-.1-.287,1.454,1.454,0,0,1-.062-.185.8.8,0,0,0-.062-.164q-.062-.164-.072-.205a.337.337,0,0,1-.01-.082,1.678,1.678,0,0,0,.062-.359.152.152,0,0,1,.1-.154.469.469,0,0,1,.226-.051.325.325,0,0,0,.144-.01.668.668,0,0,1,.185-.062.118.118,0,0,0,.082-.041l.246.021q.185.041.246.051a1.042,1.042,0,0,0,.164.01q.205.041.236.051a.227.227,0,0,0,.072.01.576.576,0,0,0,.113-.01.576.576,0,0,1,.113-.01.387.387,0,0,1,.123.021.387.387,0,0,0,.123.021.523.523,0,0,0,.185-.031.4.4,0,0,1,.205-.01.337.337,0,0,0,.236,0q.072-.041.154.041a.424.424,0,0,1,.287-.041q.226,0,.226-.021T80.658-12a.711.711,0,0,1,.215-.031.169.169,0,0,0,.051.01.653.653,0,0,1,.267.082.282.282,0,0,0,.144.062,2.223,2.223,0,0,0,.113.277.567.567,0,0,1,.051.113.748.748,0,0,0,.082.451,1.117,1.117,0,0,0,.01.246q.01,0,.01.041a.777.777,0,0,0,.041.246,1.471,1.471,0,0,1,.051.359.527.527,0,0,0,.01.174.44.44,0,0,0,.021.113.44.44,0,0,1,.021.113.8.8,0,0,0,.01.185.091.091,0,0,1,.01.041,1.419,1.419,0,0,1,.041.164.355.355,0,0,1-.021.205.221.221,0,0,1,.041.123.6.6,0,0,0,.021.144A.5.5,0,0,1,81.9-8.7a.073.073,0,0,0,.01.062,1.153,1.153,0,0,1,.041.267.636.636,0,0,1,.021.154.419.419,0,0,0,.021.133,1.153,1.153,0,0,1,.041.267.509.509,0,0,1,.082.205.221.221,0,0,0,.041.123.621.621,0,0,0,.062.246q.021.144.051.3a2.315,2.315,0,0,0,.072.277,1.213,1.213,0,0,1,.062.277.346.346,0,0,0,.041.154.554.554,0,0,1,.01.174.14.14,0,0,0,.01.092.344.344,0,0,0,.062.133.207.207,0,0,1,.041.133,1.119,1.119,0,0,1,.082.092A.148.148,0,0,0,82.771-5.558Zm10.62-10.521a.258.258,0,0,1,.154.082q.051.062.113.123a2.634,2.634,0,0,1,.1.451,3.58,3.58,0,0,0,.01.359,1.448,1.448,0,0,1,.01.195.679.679,0,0,1-.01.144.431.431,0,0,0-.01.1.252.252,0,0,0-.01.123.883.883,0,0,1,.01.144,1.486,1.486,0,0,1,0,.349,1,1,0,0,1-.082.226l-.144.205a.584.584,0,0,0-.1.123.134.134,0,0,1-.062.062q-.267.1-.379.133t-.215.051a1.131,1.131,0,0,0-.226.041.848.848,0,0,0-.113.01.847.847,0,0,1-.113.01l-.246.021a1.11,1.11,0,0,1-.185-.031.091.091,0,0,0-.041-.01,1.232,1.232,0,0,1-.308.031q-.082-.01-.185-.031a2.334,2.334,0,0,1-.3-.01.314.314,0,0,0-.133.01,1.333,1.333,0,0,0-.349,0h-.41a1.987,1.987,0,0,0-.195-.185q-.01,0-.031-.041l-.185-.185a1.944,1.944,0,0,0-.062-.472l-.041-.41v-.267a1.439,1.439,0,0,1,.041-.41.615.615,0,0,1,.041-.3.176.176,0,0,0,.041-.113q.123-.185.144-.226a.321.321,0,0,1,.062-.082l.369-.164.308-.1a.8.8,0,0,0,.1-.041h.308l.287-.062.174-.041a.805.805,0,0,1,.174-.021.747.747,0,0,1,.123.01.747.747,0,0,0,.123.01.747.747,0,0,0,.123-.01.883.883,0,0,1,.144-.01,1.966,1.966,0,0,1,.3.021.643.643,0,0,0,.277-.021.525.525,0,0,1,.226.01,1.46,1.46,0,0,1,.267.072ZM93.7-.41a.148.148,0,0,1-.041.154.1.1,0,0,0-.041.113l-.287.062a1.464,1.464,0,0,1-.369.123,1.117,1.117,0,0,1-.338.031q-.174-.01-.4-.031Q92,.062,91.9.062h-.482q-.205.021-.226.021a1.166,1.166,0,0,0-.3.031.722.722,0,0,1-.154.031h-.287L90.171.082a1.321,1.321,0,0,0-.164.01.579.579,0,0,1-.185-.01q-.1-.041-.164-.072a.317.317,0,0,0-.144-.031,1.41,1.41,0,0,1-.1-.256.07.07,0,0,0-.021-.051.311.311,0,0,1-.051-.195,1.582,1.582,0,0,0,.01-.174.747.747,0,0,0-.01-.123.645.645,0,0,1-.01-.1.387.387,0,0,1,.021-.123.454.454,0,0,0,.021-.144,1.3,1.3,0,0,0,.031-.185q.01-.1.031-.205a2.2,2.2,0,0,0,.021-.256v-.133a.419.419,0,0,0,.021-.133.636.636,0,0,1,.021-.154.46.46,0,0,0,0-.195.487.487,0,0,1-.021-.133,1.088,1.088,0,0,1,.01-.123,1.5,1.5,0,0,0,.01-.185q0-.144-.01-.267t-.01-.246a1.727,1.727,0,0,1,.041-.308v-.267a4.182,4.182,0,0,0,.021-.451q0-.267-.021-.492v-.226q.021-.246.031-.379a1.267,1.267,0,0,0-.01-.277.576.576,0,0,0-.01-.113.576.576,0,0,1-.01-.113.95.95,0,0,1-.021-.185V-6.4a.664.664,0,0,0-.01-.154.227.227,0,0,1-.01-.072v-.369a.692.692,0,0,1,0-.256.126.126,0,0,0,.021-.072,2.951,2.951,0,0,1,.01-.318,1.089,1.089,0,0,0,.01-.154v-.226a2.542,2.542,0,0,0-.021-.431,1.43,1.43,0,0,1-.062-.246V-9a1.6,1.6,0,0,0-.01-.236.314.314,0,0,1,.01-.133q0-.144-.01-.287t-.01-.308a.5.5,0,0,1,0-.205.387.387,0,0,0,.021-.123v-.574a1.741,1.741,0,0,1,0-.533.6.6,0,0,1,.082-.246,1,1,0,0,1,.082-.226,1,1,0,0,1,.369-.328.83.83,0,0,0,.174-.092.222.222,0,0,1,.113-.051,1.44,1.44,0,0,1,.246-.041,2.487,2.487,0,0,1,.451,0,1.667,1.667,0,0,0,.451-.021.514.514,0,0,1,.246.01.155.155,0,0,0,.144-.01,2.118,2.118,0,0,1,.338-.01.847.847,0,0,0,.113.01.473.473,0,0,1,.226-.021h.369a1.176,1.176,0,0,1,.144.01.2.2,0,0,1,.123.051.374.374,0,0,1,.226-.041.372.372,0,0,1,.092.082.133.133,0,0,0,.113.041.884.884,0,0,0,.144.246q.062.185.144.39a.662.662,0,0,1,.041.246,2.488,2.488,0,0,0,.021.308,1.321,1.321,0,0,0,.01.164,1.176,1.176,0,0,1,.01.144q0,.1-.01.205t-.031.205q-.021.308-.021.5a3.434,3.434,0,0,1-.021.379q-.021.1-.031.205t-.01.205a.558.558,0,0,0,.021.154.558.558,0,0,1,.021.154,2.9,2.9,0,0,1-.021.338q-.021.174-.041.359-.021.164-.041.318a2.571,2.571,0,0,0-.021.338.645.645,0,0,0,.01.1.747.747,0,0,1,.01.123,1.258,1.258,0,0,1-.01.174,1.258,1.258,0,0,0-.01.174q0,.1.01.205a.69.69,0,0,1-.01.205.9.9,0,0,1-.021.195.9.9,0,0,0-.021.195,1.318,1.318,0,0,0,0,.328,2.643,2.643,0,0,1,.021.328,1.043,1.043,0,0,1-.021.205.518.518,0,0,0,0,.205,1.7,1.7,0,0,1,.041.472.87.87,0,0,0,0,.267,1.626,1.626,0,0,1,.01.3.848.848,0,0,0-.01.113V-3.3a.973.973,0,0,1-.021.226.468.468,0,0,1,.041.338.405.405,0,0,0,.041.318.907.907,0,0,0-.031.308,1.135,1.135,0,0,0,.051.287l.021.554q.021.123.031.256t.01.236l-.021.226Zm8.036-15.442a.128.128,0,0,1,.041.092.576.576,0,0,0,.021.133,1.026,1.026,0,0,1,0,.41v.246q-.021.308-.041.472a1,1,0,0,0,0,.287.373.373,0,0,1,0,.174.487.487,0,0,0-.021.133.747.747,0,0,0,.01.123.645.645,0,0,1,.01.1.9.9,0,0,1-.021.195.9.9,0,0,0-.021.195,4.749,4.749,0,0,0,0,.882.247.247,0,0,0-.062.246.107.107,0,0,0,.113.021.44.44,0,0,1,.113-.021.352.352,0,0,0,.144-.021.228.228,0,0,1,.1-.021,1.252,1.252,0,0,1,.42-.01.7.7,0,0,0,.359-.031.752.752,0,0,0,.205.051.212.212,0,0,1,.164.113.741.741,0,0,1,.144.349q.123.205.1.226a.084.084,0,0,0-.021.062.538.538,0,0,1,.031.205.883.883,0,0,0-.01.144,1.618,1.618,0,0,1-.031.195.227.227,0,0,0-.01.072.748.748,0,0,0-.01.215.357.357,0,0,1-.031.195,1.153,1.153,0,0,1,.041.267,2.523,2.523,0,0,0-.031.656,1.407,1.407,0,0,1-.01.451,1.528,1.528,0,0,0-.031.154.527.527,0,0,0,.01.174q-.082.144-.072.174t-.031.051a.148.148,0,0,1-.051.123.11.11,0,0,0-.031.123.35.35,0,0,0-.123.051q-.041.031-.123-.01a1.152,1.152,0,0,1-.492.021h-.513a.959.959,0,0,0-.369-.062.762.762,0,0,1-.185.021.283.283,0,0,0-.031.164,1.5,1.5,0,0,1,.01.185v.369q0,.185-.01.338t-.031.359a2.951,2.951,0,0,0,.01.318.947.947,0,0,1,.01.133,1.559,1.559,0,0,1-.01.4.748.748,0,0,0,.051.4.969.969,0,0,1,0,.3.252.252,0,0,0-.021.092,2.282,2.282,0,0,0,.041.338q.021.072.041.133a.966.966,0,0,0,.01.205.143.143,0,0,1,.01.062l.041.123a.387.387,0,0,1,.021.123.487.487,0,0,1,.174.1A.539.539,0,0,1,101.8-4a.754.754,0,0,1,.369.185.533.533,0,0,1,.164.021l.185.062a1.844,1.844,0,0,0,.39,0,1.406,1.406,0,0,1,.267-.021l.267-.041a.5.5,0,0,0,.185-.041.084.084,0,0,1,.062-.021.855.855,0,0,0,.3-.062.6.6,0,0,1,.154-.062.653.653,0,0,0,.164-.01A.143.143,0,0,1,104.36-4a1.277,1.277,0,0,0,.256.123q.031,0,.031.041a.2.2,0,0,1,.021.144,1,1,0,0,1-.062.1v.267a.5.5,0,0,1-.041.185,1.879,1.879,0,0,1-.1.246.364.364,0,0,0-.031.1.81.81,0,0,1-.031.123,1.629,1.629,0,0,0-.123.338,1.722,1.722,0,0,1-.062.236,1.454,1.454,0,0,0-.062.185.462.462,0,0,1-.082.164q-.082.287-.1.41a.641.641,0,0,0-.051.195q.01.01-.01.031a2.719,2.719,0,0,0-.072.308.759.759,0,0,1-.051.185l-.082.287a2.309,2.309,0,0,1-.144.246q-.185.164-.205.174a.292.292,0,0,0-.062.051,1.311,1.311,0,0,0-.205.041.257.257,0,0,0-.1.062.366.366,0,0,0-.267.082.991.991,0,0,0-.246-.01q-.123.01-.328.01a.8.8,0,0,0-.185.01.091.091,0,0,1-.041.01,1.041,1.041,0,0,0-.287-.041,2.183,2.183,0,0,0-.226-.021A.777.777,0,0,1,101.1.246a2.11,2.11,0,0,0-.277-.031,2.11,2.11,0,0,1-.277-.031q-.123-.021-.256-.031t-.277-.031Q99.807.021,99.8.01A.042.042,0,0,0,99.766,0L99.52-.123a.8.8,0,0,1-.256-.062.111.111,0,0,0-.051-.041q-.328-.144-.369-.287-.205-.082-.205-.1T98.6-.656q-.164-.144-.164-.185a1.889,1.889,0,0,0-.185-.195.2.2,0,0,1-.062-.113q-.164-.226-.174-.246a.292.292,0,0,0-.051-.062.255.255,0,0,1-.062-.113.473.473,0,0,0-.062-.133,3.513,3.513,0,0,1-.154-.441,1.617,1.617,0,0,0-.072-.236q-.021-.1-.031-.174t-.031-.174a1.3,1.3,0,0,1-.031-.185,1.051,1.051,0,0,0-.051-.226l-.021-.226a.562.562,0,0,1-.072-.226.337.337,0,0,0,.01-.082.586.586,0,0,1,0-.308.266.266,0,0,1-.031-.215q.031-.113.051-.215a1.258,1.258,0,0,0-.01-.174,1.089,1.089,0,0,1-.01-.154.762.762,0,0,1,.021-.185.762.762,0,0,0,.021-.185.634.634,0,0,0,.01-.195,1.766,1.766,0,0,1-.01-.195v-.636a2.183,2.183,0,0,0,.021-.226v-.349a1.089,1.089,0,0,1,.01-.154,1.089,1.089,0,0,0,.01-.154,1.2,1.2,0,0,1-.01-.256,1.089,1.089,0,0,0,.01-.154v-.287a3.343,3.343,0,0,1-.041-.4,1.435,1.435,0,0,0-.021-.236q-.164.041-.369.082a4.08,4.08,0,0,1-.431.062,1.258,1.258,0,0,1-.174-.01.848.848,0,0,0-.113-.01.737.737,0,0,1-.195-.021q-.072-.021-.133-.041a2.91,2.91,0,0,0-.267-.164.379.379,0,0,0-.1-.154.379.379,0,0,1-.1-.154.331.331,0,0,1-.01-.215.976.976,0,0,0,.031-.256v-.185a.95.95,0,0,0-.021-.185.717.717,0,0,0,.021-.174.318.318,0,0,0-.021-.133.76.76,0,0,1-.051-.226.213.213,0,0,0,.01-.082,2.183,2.183,0,0,1-.021-.226v-.1q-.021-.164-.031-.318t-.01-.3a.524.524,0,0,1,0-.226.084.084,0,0,0,.021-.062,1.13,1.13,0,0,1-.01-.246.378.378,0,0,0-.01-.144q.041-.185.062-.185t.041-.041l.267-.287a.293.293,0,0,0,.215,0,.685.685,0,0,1,.236-.041l.267.021a.862.862,0,0,1,.39.082,1.04,1.04,0,0,1,.287.021.182.182,0,0,0,.082.021.132.132,0,0,0,.1,0,.255.255,0,0,1,.144,0,.438.438,0,0,0-.021-.226,2.235,2.235,0,0,1-.01-.379,1.95,1.95,0,0,0-.01-.359v-.328a1.566,1.566,0,0,1,.01-.256.093.093,0,0,0-.01-.072q-.041-.205-.041-.226a.576.576,0,0,0-.021-.267.2.2,0,0,0-.01-.144.7.7,0,0,1-.051-.144.4.4,0,0,1-.01-.154.4.4,0,0,0-.01-.154,1.064,1.064,0,0,0-.041-.133.3.3,0,0,1-.021-.113.864.864,0,0,0-.021-.144,1.023,1.023,0,0,1-.021-.123.783.783,0,0,0,.01-.205.116.116,0,0,1,.01-.082.258.258,0,0,1,.1-.144.407.407,0,0,0,.123-.144,1.084,1.084,0,0,0,.349.031,3,3,0,0,0,.328-.031.166.166,0,0,1,.1-.01.747.747,0,0,0,.123.01.634.634,0,0,0,.195.01,1.582,1.582,0,0,1,.174-.01l.123.041q.062.021.144.041.205-.021.287-.021a.506.506,0,0,0,.164.01.073.073,0,0,1,.062.01.829.829,0,0,0,.164-.01.116.116,0,0,1,.082.01,2.747,2.747,0,0,0,.277.021.493.493,0,0,0,.154-.021h.215a.258.258,0,0,0,.174-.041,1.618,1.618,0,0,1,.195.031q.031.01.072-.031a.111.111,0,0,0,.1.031.883.883,0,0,1,.144-.01.848.848,0,0,1,.113.01.847.847,0,0,0,.113.01.526.526,0,0,0,.174.01.106.106,0,0,1,.113.072Zm14.988,17.37-.062.513a2.157,2.157,0,0,1-.164.615.14.14,0,0,1-.01.154.371.371,0,0,0-.051.215q-.1.205-.133.287a1.708,1.708,0,0,1-.072.164,2.288,2.288,0,0,1-.082.267.321.321,0,0,1-.062.082.193.193,0,0,0-.051.113.193.193,0,0,1-.051.113,1.6,1.6,0,0,0-.164.205.8.8,0,0,0-.041.1.217.217,0,0,0-.1.072.22.22,0,0,1-.123.072.473.473,0,0,0-.062.133.308.308,0,0,1-.082.133,1.785,1.785,0,0,0-.185.236q-.041.072-.082.133a.784.784,0,0,1-.195.226q-.051.021-.072.123a.176.176,0,0,0-.113.041,1.119,1.119,0,0,0-.092.082.238.238,0,0,0-.092.185.118.118,0,0,1-.051.123,2.867,2.867,0,0,0-.308.215,1.435,1.435,0,0,1-.144.113.755.755,0,0,0-.195.1.111.111,0,0,1-.051.041,1.4,1.4,0,0,1-.113.1.548.548,0,0,0-.113.144q-.123,0-.185.164a.992.992,0,0,1-.205.092q0-.01-.021.01a1.108,1.108,0,0,0-.369.185.546.546,0,0,1-.185.123.221.221,0,0,1-.123.041.221.221,0,0,0-.123.041q-.185.082-.246.113l-.144.072a.336.336,0,0,1-.185.041.16.16,0,0,0-.164.1l-.246.062q-.226.144-.277.133t-.092.051a1.115,1.115,0,0,1-.318-.062.69.69,0,0,1-.174-.113,1.856,1.856,0,0,1-.164-.164.673.673,0,0,0-.205-.154q-.144-.185-.185-.226a1.18,1.18,0,0,1-.185-.431q-.041-.1-.072-.195l-.051-.154a.667.667,0,0,0-.1-.39q0-.205-.041-.205a.036.036,0,0,1-.041-.041.375.375,0,0,0-.051-.144q-.031-.041.01-.185-.1-.267-.164-.287a.4.4,0,0,0-.021-.277.338.338,0,0,1,.041-.318.632.632,0,0,1,.031-.256q.031-.051.072-.113a1.185,1.185,0,0,0,.246-.154.5.5,0,0,1,.062-.072,1.315,1.315,0,0,1,.256-.062.2.2,0,0,0,.092-.021q.205-.1.195-.123t.01-.021a.456.456,0,0,0,.144-.062.672.672,0,0,0,.1-.082.361.361,0,0,0,.267-.1q.123-.062.236-.123t.246-.123q.133-.062.256-.123a.69.69,0,0,0,.164-.1q.1-.144.123-.164a.239.239,0,0,0,.041-.062.852.852,0,0,1,.164-.123.793.793,0,0,0,.144-.1.668.668,0,0,1,.205-.205.922.922,0,0,0,.1-.215.323.323,0,0,1,.041-.113.7.7,0,0,0,.113-.359.481.481,0,0,1,.072-.277q-.021-.041.041-.164a.5.5,0,0,0,.062-.164,1.372,1.372,0,0,0,.031-.287q-.01-.021.031-.123a.2.2,0,0,0-.01-.144.252.252,0,0,1,.01-.185q.021-.226.031-.267a.337.337,0,0,0,.01-.082V-.718a.882.882,0,0,0-.021-.164.493.493,0,0,0,.021-.236.138.138,0,0,1,.021-.133l-.39.205a1.063,1.063,0,0,0-.236.195.4.4,0,0,1-.051.072q-.246.082-.246.1t-.041.041q-.205.082-.226.092a.161.161,0,0,0-.041.031,1.253,1.253,0,0,0-.246.144,1.016,1.016,0,0,0-.256.082.579.579,0,0,1-.174.062.193.193,0,0,0-.123.051q-.062.051-.1.092-.246.062-.256.062a.18.18,0,0,0-.051.021q-.205.123-.215.1t-.031,0a.623.623,0,0,1-.174.082A.165.165,0,0,0,110,.205q-.287.1-.369.123a1.454,1.454,0,0,0-.185.062,2.639,2.639,0,0,1-.349.062q-.185.021-.287.041a.777.777,0,0,1-.215-.154.129.129,0,0,0-.031-.051q-.246-.164-.246-.205a1.114,1.114,0,0,0-.205-.113q0,.01-.021-.01a1.051,1.051,0,0,1-.226-.246.613.613,0,0,0-.267-.246l-.185-.226A2.128,2.128,0,0,1,107.207-1q-.144-.164-.144-.205a.852.852,0,0,0-.123-.164l-.144-.144a2.355,2.355,0,0,0-.185-.226.547.547,0,0,0-.144-.1,1.737,1.737,0,0,0-.123-.246,1.146,1.146,0,0,1-.072-.123.265.265,0,0,0-.092-.1.146.146,0,0,0-.021-.133.084.084,0,0,1-.021-.092q-.062-.226-.082-.308a.762.762,0,0,1-.021-.185,1.426,1.426,0,0,1-.01-.277A.1.1,0,0,0,106-3.4a.745.745,0,0,0,.041-.236v-.236a.9.9,0,0,1-.031-.246.337.337,0,0,0,.01-.082,1.049,1.049,0,0,1,.021-.154.278.278,0,0,0,0-.154v-.226a.644.644,0,0,1,0-.328,1.13,1.13,0,0,0,.01-.246.337.337,0,0,1-.01-.082,1.089,1.089,0,0,1,.01-.154,1.089,1.089,0,0,0,.01-.154q.021-.123.041-.256a.754.754,0,0,0-.021-.3.408.408,0,0,0,.062-.246,1.546,1.546,0,0,1-.01-.3q.01-.113.01-.236a1.089,1.089,0,0,1,.01-.154,1.089,1.089,0,0,0,.01-.154.762.762,0,0,0-.021-.185L106.1-7.69a.576.576,0,0,1,.01-.113.576.576,0,0,0,.01-.113v-.133a.419.419,0,0,0-.021-.133,1.583,1.583,0,0,1,.01-.246.116.116,0,0,0-.01-.082q0-.062-.01-.164t-.031-.205a1.566,1.566,0,0,1,.01-.256.227.227,0,0,0,.01-.072l-.041-.246a1.191,1.191,0,0,0-.021-.287A.387.387,0,0,1,106-9.864a1.317,1.317,0,0,0-.021-.318.3.3,0,0,1-.021-.113,2.944,2.944,0,0,0,.01-.4.75.75,0,0,0-.051-.195.256.256,0,0,1-.021-.113.152.152,0,0,0-.041-.113.646.646,0,0,0,.031-.256,1.06,1.06,0,0,1,.01-.256,2.254,2.254,0,0,0,.1-.267,2.684,2.684,0,0,0,.369-.164q.226.021.287.031a.644.644,0,0,0,.1.01,1.109,1.109,0,0,1,.256-.051.081.081,0,0,0,.051.01.848.848,0,0,0,.256.031,1.258,1.258,0,0,1,.174-.01.625.625,0,0,0,.318.031.276.276,0,0,1,.195.01.246.246,0,0,0,.164.021.337.337,0,0,1,.1-.021.9.9,0,0,1,.195.021l.195.041h.287a1.456,1.456,0,0,1,.287-.01.255.255,0,0,0,.185-.051q.226.041.246.041a.319.319,0,0,1,.226.1l.123.164a1.312,1.312,0,0,1,.205.441,1.414,1.414,0,0,1,.021.42.558.558,0,0,1-.021.154.558.558,0,0,0-.021.154.947.947,0,0,0,.01.133.947.947,0,0,1,.01.133l-.041.267a.668.668,0,0,0-.041.287.454.454,0,0,1,.021.144.387.387,0,0,1-.021.123.454.454,0,0,0-.021.144,1.849,1.849,0,0,0-.01.338,1.117,1.117,0,0,1-.031.338,2.1,2.1,0,0,0-.041.308v.144a1.317,1.317,0,0,0,.021.236.471.471,0,0,1-.021.236.49.49,0,0,1,.031.226q-.01.123-.01.287-.021.308-.021.431V-6.5q0,.1.01.205t.01.205a1.089,1.089,0,0,0,.01.154.125.125,0,0,1-.031.113.192.192,0,0,1,.021.154.8.8,0,0,0-.021.174.518.518,0,0,0,0,.205,1.043,1.043,0,0,1,.021.205.9.9,0,0,0,.021.349,1.545,1.545,0,0,0,.062.267l.041.082.041.226a.662.662,0,0,0,.041.246q.205.144.226.1t.062,0a.225.225,0,0,0,.174.01l.174-.072a1.329,1.329,0,0,0,.308-.021q.185-.1.215-.092a.157.157,0,0,0,.092-.01,2.529,2.529,0,0,0,.267-.164.273.273,0,0,1,.164-.062l.246-.164q.267-.164.287-.226a.725.725,0,0,1,.267-.144q.082-.287.1-.39a.442.442,0,0,1-.01-.154.227.227,0,0,0,.01-.072q-.021-.123-.031-.256t-.01-.236a.564.564,0,0,0,0-.226.182.182,0,0,1-.021-.082.093.093,0,0,1-.021-.1.387.387,0,0,0,.021-.123.621.621,0,0,1-.051-.215.227.227,0,0,0,.01-.072,1.176,1.176,0,0,0-.01-.144,1.176,1.176,0,0,1-.01-.144.735.735,0,0,0,0-.256.3.3,0,0,1-.021-.113.285.285,0,0,0,.021-.174q-.021-.051.062-.072a1.214,1.214,0,0,1-.072-.246,1.5,1.5,0,0,1-.01-.185q0-.164.01-.338t.01-.338l.021-.267a.544.544,0,0,0,.021-.267.65.65,0,0,1,.021-.287.775.775,0,0,1-.031-.236.179.179,0,0,1,.051-.092.777.777,0,0,1-.021-.287.087.087,0,0,0,0-.082q-.021-.226-.021-.267a.473.473,0,0,1,0-.205.182.182,0,0,0,.021-.082,1.007,1.007,0,0,1-.021-.328.454.454,0,0,0,.021-.144q0-.205.01-.3a.425.425,0,0,1,.031-.133q.021-.062.041-.144l.041-.164a.456.456,0,0,1,.144-.062l.164-.041h.123a.253.253,0,0,1,.144.041.787.787,0,0,1,.256.051.136.136,0,0,0,.133-.01.94.94,0,0,1,.174.041.3.3,0,0,0,.113.021.387.387,0,0,0,.123-.021l.123-.041a1.042,1.042,0,0,1,.164.01.883.883,0,0,0,.144.01,1.582,1.582,0,0,1,.174.01.225.225,0,0,0,.154-.031.318.318,0,0,1,.133-.021h.154a1.221,1.221,0,0,1,.369.01,1.011,1.011,0,0,0,.246.031.387.387,0,0,0,.123-.021.255.255,0,0,1,.144,0,1.656,1.656,0,0,1,.287.062.348.348,0,0,0,.154.031.227.227,0,0,1,.072-.01.567.567,0,0,1,.113.051.13.13,0,0,0,.113.01,1.058,1.058,0,0,0,.205.226.364.364,0,0,0,.021.133.437.437,0,0,1,.021.154.314.314,0,0,0-.01.133.475.475,0,0,1,.01.092.7.7,0,0,1-.01.133.849.849,0,0,0-.01.154,1.39,1.39,0,0,1-.01.215.475.475,0,0,0-.01.092.418.418,0,0,1-.01.205.606.606,0,0,0-.031.164,1.766,1.766,0,0,0,.01.195.4.4,0,0,1-.031.195.356.356,0,0,1,.01.144.747.747,0,0,0-.01.123,2.821,2.821,0,0,1,.021.3,1.1,1.1,0,0,1-.021.215.576.576,0,0,1-.01.113.576.576,0,0,0-.01.113.808.808,0,0,0-.01.226q.01.123.01.246v.246a.389.389,0,0,0-.021.205.136.136,0,0,1-.021.123.254.254,0,0,0-.01.133,1.438,1.438,0,0,1,.01.154,1.093,1.093,0,0,1-.021.246,1.186,1.186,0,0,0-.021.359.138.138,0,0,1-.021.133.34.34,0,0,0-.031.205q.01.144.01.246a.769.769,0,0,1,0,.267.182.182,0,0,0-.021.082,3.221,3.221,0,0,1,.01.42q-.01.113-.01.236a.994.994,0,0,1-.01.185.378.378,0,0,0,.01.144.979.979,0,0,1-.01.195.227.227,0,0,0-.01.072,1.03,1.03,0,0,1,.01.236.14.14,0,0,0,.01.092,1.321,1.321,0,0,1-.01.164.444.444,0,0,0,.01.164.576.576,0,0,0,.01.113.576.576,0,0,1,.01.113.883.883,0,0,1,0,.287.182.182,0,0,0-.021.082.558.558,0,0,0,.021.154.558.558,0,0,1,.021.154,1.021,1.021,0,0,1-.051.226q-.01,0-.01.021l.041.369q-.021.205-.031.328t-.01.226v.369a2.334,2.334,0,0,0,.01.3.576.576,0,0,1,.01.113,1.749,1.749,0,0,1-.031.4.818.818,0,0,0-.031.215,1.089,1.089,0,0,1-.01.154.848.848,0,0,0-.01.113,1.281,1.281,0,0,1-.031.205.091.091,0,0,0-.01.041.9.9,0,0,0,.021.195.9.9,0,0,1,.021.195,1.131,1.131,0,0,1-.01.236.081.081,0,0,0-.01.051.971.971,0,0,0-.031.236.042.042,0,0,1,.01.031l-.031.215a1.258,1.258,0,0,0-.01.174Z" transform="translate(52.127 27.103)" fill="#e7470c"/>
    </g>
  </g>
</svg>
