<svg xmlns="http://www.w3.org/2000/svg" width="150" height="31.156" viewBox="0 0 150 31.156">
  <path id="textlogo" d="M19.115-185.128a.777.777,0,0,0-.053.291v.37a3.042,3.042,0,0,0,.013.37.964.964,0,0,1,.013.159v.291a1,1,0,0,0,.053.318v.291a1.346,1.346,0,0,0,.026.265,5.2,5.2,0,0,0,.159.847.515.515,0,0,1,.013.2.335.335,0,0,0,.04.2,1.74,1.74,0,0,1,.053.423.774.774,0,0,1-.026.265,1.183,1.183,0,0,0-.2.3.124.124,0,0,1-.066.093l-.4.132q-.106-.026-.225-.053a1.156,1.156,0,0,0-.251-.026,1.146,1.146,0,0,1-.423-.026,1.9,1.9,0,0,1-.291-.04.184.184,0,0,0-.079-.013,1.122,1.122,0,0,1-.344,0,1.782,1.782,0,0,0-.291-.026,4.822,4.822,0,0,0-.529.026,2.148,2.148,0,0,1-.476,0,1.466,1.466,0,0,0-.291-.04q.026.013-.026.013a.905.905,0,0,0-.3-.04,1.094,1.094,0,0,1-.146.013,1.256,1.256,0,0,1-.291.026q-.185.026-.331.053a.881.881,0,0,1-.3,0,2.45,2.45,0,0,1-.291-.079,1.743,1.743,0,0,1-.609,0,2.882,2.882,0,0,1-.344-.132,1.417,1.417,0,0,1-.212-.172q0-.013-.026-.04-.212-.344-.185-.423a.424.424,0,0,0,0-.212.757.757,0,0,1,0-.4q.026-.344.026-.5v-.423q0-.132.013-.265t.013-.265q0-.212.013-.41a1.1,1.1,0,0,1,.066-.331.3.3,0,0,1-.026-.212.87.87,0,0,0,.026-.212l-.026-.291a1.039,1.039,0,0,1,.026-.225,1.039,1.039,0,0,0,.026-.225q0-.132-.013-.265t-.013-.291a2.279,2.279,0,0,1,.013-.251.519.519,0,0,0-.04-.251q.053-.291,0-.344a.6.6,0,0,1,0-.251,1.156,1.156,0,0,0,.026-.251v-.251a2.236,2.236,0,0,0-.026-.3q0-.423-.013-.6t-.013-.384v-.37a1.343,1.343,0,0,1-.013-.318q.013-.132.013-.265l-.026-.582q0-.609-.013-1.2t-.066-1.2q-.026-.212-.053-.357a1.439,1.439,0,0,0-.079-.278.378.378,0,0,0-.013-.225,1.147,1.147,0,0,1-.066-.225.857.857,0,0,0-.013-.2.293.293,0,0,1-.013-.093,1.711,1.711,0,0,1-.013-.344.117.117,0,0,0,.013-.053,1.218,1.218,0,0,1-.093-.384.743.743,0,0,0,.013-.146,1.2,1.2,0,0,1-.04-.357,2.278,2.278,0,0,0,.013-.251.55.55,0,0,1-.013-.2.613.613,0,0,0,.013-.119.719.719,0,0,0-.026-.2q-.026-.093-.053-.172a2.042,2.042,0,0,0-.013-.225.519.519,0,0,1,.04-.251,1.044,1.044,0,0,1-.04-.159,1.344,1.344,0,0,1-.013-.212q-.026-.265-.04-.331a.613.613,0,0,1-.013-.119.515.515,0,0,1-.013-.2.679.679,0,0,0-.013-.225q-.053-.238-.066-.291a.435.435,0,0,1-.013-.106.646.646,0,0,0-.053-.238.108.108,0,0,1-.026-.079q-.026-.291-.04-.384t-.04-.225v-.318q.106-.318.132-.384a.352.352,0,0,1,.079-.119.711.711,0,0,0,.225-.106q.013-.026.066-.026a2.614,2.614,0,0,1,.37-.026h.37q.132,0,.265.013a.89.89,0,0,0,.265-.013,2.1,2.1,0,0,1,.556-.026,3.411,3.411,0,0,0,.423.026h.556a2.8,2.8,0,0,0,.3.026.33.33,0,0,1,.146.026,2.641,2.641,0,0,0,.318.053q.238.026.3.04a1.223,1.223,0,0,1,.146.04.5.5,0,0,0,.238,0,.235.235,0,0,1,.106-.026,2.432,2.432,0,0,0,.423.013q.159-.013.318-.013a.657.657,0,0,0,.265.066.362.362,0,0,1,.079-.013q.106.026.2.053a.72.72,0,0,0,.2.026,1.251,1.251,0,0,1,.344-.04,1.14,1.14,0,0,0,.185.013h.225a.35.35,0,0,1,.2.053.717.717,0,0,1,.437-.026,1.27,1.27,0,0,0,.516,0,5.269,5.269,0,0,1,.781-.04q.3.013.7.013a.82.82,0,0,1,.344.053,5.708,5.708,0,0,1,.609.026,1.964,1.964,0,0,1,.4.079q.318.026.41.026h.146q.132.026.251.04t.251.04a.625.625,0,0,0,.291.132,2.09,2.09,0,0,1,.318.079,1.46,1.46,0,0,0,.291.079.152.152,0,0,1,.106.053.408.408,0,0,1,.119.106.682.682,0,0,0,.146.132,2.217,2.217,0,0,1,.3.3.382.382,0,0,0,.119.119.993.993,0,0,1,.291.251q.053.093.106.172a1.1,1.1,0,0,1,.238.291.668.668,0,0,0,.079.159q.212.238.225.265a.207.207,0,0,0,.04.053q.212.344.238.37a.977.977,0,0,1,.119.265.237.237,0,0,0,.066.132l.106.291a2,2,0,0,1,.238.41q.053.146.106.3a.943.943,0,0,1,.132.251.213.213,0,0,0,.026.093l.106.291a.831.831,0,0,0,.066.278.637.637,0,0,1,.066.172q.053.212.093.423a2.536,2.536,0,0,0,.119.423,1.586,1.586,0,0,1,.053.212.2.2,0,0,0,.026.079,3.371,3.371,0,0,1,.079.542.741.741,0,0,0,.053.278.457.457,0,0,0-.026.265.668.668,0,0,1,0,.265q-.026.079-.053.146a.388.388,0,0,0-.026.146,1.02,1.02,0,0,1-.013.251.1.1,0,0,0-.013.066q-.026.265-.04.344a.831.831,0,0,0-.013.132,1.023,1.023,0,0,0-.119.278.054.054,0,0,1,.013.04,3.9,3.9,0,0,1-.2.37.451.451,0,0,0-.066.159,1.989,1.989,0,0,0-.146.291.168.168,0,0,1-.04.079,1.817,1.817,0,0,0-.2.318.517.517,0,0,1-.04.106.788.788,0,0,0-.238.278.611.611,0,0,1-.079.172.933.933,0,0,0-.251.238,2,2,0,0,1-.225.265,1.67,1.67,0,0,0-.212.2,1.8,1.8,0,0,1-.132.146,1.671,1.671,0,0,0-.159.172.2.2,0,0,1-.079.066l-.212.212q-.212.185-.212.212a1.422,1.422,0,0,1-.344.318q-.079.053-.172.119t-.2.146a.8.8,0,0,1-.344.212,2.391,2.391,0,0,1-.5.291.974.974,0,0,0-.251.132.042.042,0,0,1-.04.026l-.291.132-.291.132a2.5,2.5,0,0,0-.278.093q-.093.04-.2.093-.4.132-.6.185a3.066,3.066,0,0,1-.41.079.767.767,0,0,0-.225.106.445.445,0,0,1-.172.079,1.064,1.064,0,0,1-.291.026,1.027,1.027,0,0,1-.132.053.5.5,0,0,1-.159.026,1.536,1.536,0,0,1-.344.013,1.814,1.814,0,0,0-.37.013.586.586,0,0,0-.185.026.435.435,0,0,1-.132.026.515.515,0,0,1-.2.013A.239.239,0,0,0,19.115-185.128Zm-.5-8.044A1.222,1.222,0,0,1,18.6-193a1.4,1.4,0,0,0-.013.2,1.7,1.7,0,0,0,.013.212,1.705,1.705,0,0,1,.013.212q0,.212-.013.4t-.013.37a.843.843,0,0,0,.013.212.184.184,0,0,1,.013.079.809.809,0,0,1,.013.238q-.013,0-.013.053a.717.717,0,0,1,.066.3,1.405,1.405,0,0,0-.013.2q0,.291.013.529t.013.45l.026.344a2.616,2.616,0,0,1,.026.37,2.616,2.616,0,0,0,.026.37,1.831,1.831,0,0,1,.423-.2.653.653,0,0,0,.344-.251q.238-.132.238-.159t.053-.053a.743.743,0,0,1,.291-.185.734.734,0,0,1,.172-.146.166.166,0,0,0,.066-.04,1.447,1.447,0,0,0,.106-.119.332.332,0,0,1,.106-.093l.212-.238q.212-.291.265-.37l.106-.159q.185-.265.225-.251t.04-.04l.106-.212a.415.415,0,0,1,.079-.106,1.067,1.067,0,0,0,.212-.318.085.085,0,0,1,.053-.079.189.189,0,0,1,.026-.172.08.08,0,0,0,0-.119l.106-.318a.2.2,0,0,0,.053-.185.5.5,0,0,1-.026-.159.614.614,0,0,1-.013-.212.964.964,0,0,0,.013-.159,4.375,4.375,0,0,1-.185-.476,1.034,1.034,0,0,0-.079-.212,2.294,2.294,0,0,1-.079-.344.235.235,0,0,0-.026-.106,1.654,1.654,0,0,0-.132-.291.308.308,0,0,1-.053-.079,1.61,1.61,0,0,0-.185-.238q-.265-.238-.265-.278t-.053-.066a3.172,3.172,0,0,1-.251-.265.377.377,0,0,0-.066-.079q-.212-.185-.291-.185a2.055,2.055,0,0,0-.225-.212q-.013,0-.04-.026-.291-.212-.318-.225a.376.376,0,0,1-.079-.066q-.265-.212-.291-.2a.094.094,0,0,1-.079-.013q-.212-.132-.238-.146a.207.207,0,0,1-.053-.04.335.335,0,0,0-.159-.079.588.588,0,0,1-.185-.079.708.708,0,0,0-.053.265,1.346,1.346,0,0,0,.026.265,1.9,1.9,0,0,1,0,.45l-.053.37a5.855,5.855,0,0,0-.013.662q.013.265.013.556a1.128,1.128,0,0,0-.026.41A2.347,2.347,0,0,1,18.613-193.172Zm20.5,12.569q-.132-.318-.172-.384a.645.645,0,0,1-.066-.2l.026-.344a.719.719,0,0,0-.026-.2.629.629,0,0,1-.026-.172,1.691,1.691,0,0,0-.106-.4,1.587,1.587,0,0,0,.026-.225.263.263,0,0,0-.026-.119l-.159-.265q-.212.265-.185.265a.806.806,0,0,0-.238.185q-.159.159-.185.159t-.079.053a3.01,3.01,0,0,1-.291.37l-.212.238a.816.816,0,0,1-.238.212,2.13,2.13,0,0,0-.185.2.389.389,0,0,1-.106.093,1.163,1.163,0,0,1-.291.265q-.238.265-.291.265a.5.5,0,0,1-.132.093.5.5,0,0,0-.132.093,1.065,1.065,0,0,1-.291.026h-.37a1.313,1.313,0,0,1-.37-.159q-.238-.053-.318-.079a.5.5,0,0,0-.159-.026l-.238-.185a2.3,2.3,0,0,1-.238-.066.117.117,0,0,0-.053-.013,3.1,3.1,0,0,1-.331-.146.393.393,0,0,0-.2-.04q-.159-.106-.172-.146a.166.166,0,0,0-.04-.066.912.912,0,0,0-.265-.132.281.281,0,0,0-.159-.172.856.856,0,0,1-.212-.119l-.2-.2-.066-.066-.238-.238-.212-.238q-.212-.291-.318-.45a1.418,1.418,0,0,1-.265-.37q-.344-.318-.37-.344a.807.807,0,0,1-.185-.265,2.385,2.385,0,0,1-.185-.291.313.313,0,0,1-.119-.238q-.013-.159-.013-.318a2.618,2.618,0,0,0-.132-.4.427.427,0,0,1-.053-.265.424.424,0,0,0,0-.212,1.492,1.492,0,0,0,.119-.238.281.281,0,0,1,.172-.159q.106-.265.132-.265.132-.185.185-.265a1.4,1.4,0,0,1,.146-.225l.093-.093a1.135,1.135,0,0,1,.212-.265,1.3,1.3,0,0,0,.2-.185q.093-.106.2-.212.212-.238.4-.423a2.17,2.17,0,0,1,.225-.238q.013,0,.04-.026a2.594,2.594,0,0,0,.3-.265.993.993,0,0,1,.093-.106,1.436,1.436,0,0,1,.265-.159.2.2,0,0,0,.079-.026,3.1,3.1,0,0,0,.291-.185,1.172,1.172,0,0,0,.251-.185.263.263,0,0,1,.093-.079q.265-.159.37-.212a2.433,2.433,0,0,1,.251-.185q.013,0,.04-.026.291-.106.344-.212a3.285,3.285,0,0,0,.423-.2,1.494,1.494,0,0,1,.344-.146,1.456,1.456,0,0,0,.37-.212q.265-.212.265-.265a.308.308,0,0,0-.225-.066,2.551,2.551,0,0,1-.278.013h-.556a1.221,1.221,0,0,0-.172.013.515.515,0,0,1-.2-.013,2.044,2.044,0,0,0-.437-.04,1.222,1.222,0,0,1-.172.013l-.45.026a1,1,0,0,0-.318-.053.419.419,0,0,1-.185.013,1.518,1.518,0,0,0-.185-.013,1.649,1.649,0,0,0-.344.04,1.892,1.892,0,0,1-.4.04.371.371,0,0,1-.172.013,1.4,1.4,0,0,0-.2-.013q-.4,0-.622-.013a2.385,2.385,0,0,0-.437.013q-.318-.026-.344-.066a.642.642,0,0,0-.079-.093,1,1,0,0,1-.119-.331.293.293,0,0,0,.013-.093q.053-.265.066-.318a.435.435,0,0,0,.013-.106.787.787,0,0,1,.079-.278.143.143,0,0,0,.053-.066,2.857,2.857,0,0,1,.106-.463q.053-.146.106-.278a.464.464,0,0,0,.026-.146.268.268,0,0,1,.053-.146,1.63,1.63,0,0,0,.106-.609,2.559,2.559,0,0,1,.132-.542,1.755,1.755,0,0,0,.106-.357,1.541,1.541,0,0,0,.079-.37l.106-.318a1.63,1.63,0,0,0,.291-.4q.079-.053.146-.093t.146-.093a2.032,2.032,0,0,1,.37-.106.445.445,0,0,0,.2-.026.865.865,0,0,1,.093-.053,1.306,1.306,0,0,0,.384,0,.291.291,0,0,1,.225.053.619.619,0,0,1,.238-.04.705.705,0,0,0,.159.013A2.1,2.1,0,0,0,33.9-196h.688a1.562,1.562,0,0,1,.357-.04.293.293,0,0,0,.093.013.464.464,0,0,0,.212.013q.159-.013.185-.013H35.8a3.519,3.519,0,0,0,.437-.026.5.5,0,0,1,.238,0,.235.235,0,0,0,.106.026h.344a1.46,1.46,0,0,1,.318-.013.184.184,0,0,0,.079.013l.291-.026a.786.786,0,0,1,.251.026.325.325,0,0,0,.119.026.436.436,0,0,1,.225,0,.163.163,0,0,0,.093.026,1.909,1.909,0,0,1,.767.106q.423.132.529.159.212.159.225.146t.04.013a.574.574,0,0,0,.238.172.237.237,0,0,1,.132.066l.238.238a2.951,2.951,0,0,0,.291.212q.185.212.291.318.132.106.185.146a1,1,0,0,1,.106.093q.265.159.291.238a.168.168,0,0,0,.132.106,1.921,1.921,0,0,1,.093.291q.013.079.119.106l.053.159a1.453,1.453,0,0,0,.079.185.32.32,0,0,1,.066.2.18.18,0,0,0,.013.119.645.645,0,0,0,.066.2q.04.066.066.119.106.4.159.542t.106.278a.655.655,0,0,1,.066.2,1.015,1.015,0,0,0,.066.225q.159.423.225.648t.119.49a3.228,3.228,0,0,1,.093.344q.04.185.066.318a2.094,2.094,0,0,0,.079.45l.079.476q.053.212.093.4a1.893,1.893,0,0,1,.04.4,2.387,2.387,0,0,0,.185.5,1.2,1.2,0,0,0,.053.291.6.6,0,0,1,.053.2.263.263,0,0,0,.026.119,1.412,1.412,0,0,1,.093.423.326.326,0,0,0,.013.159.586.586,0,0,1,.04.225.218.218,0,0,0-.013.066.637.637,0,0,0,.066.172.331.331,0,0,1,.04.172.483.483,0,0,0,.013.265,1.213,1.213,0,0,1,.066.159.445.445,0,0,0,.026.2.518.518,0,0,1,.053.119l.026.45a.815.815,0,0,1,.053.3,2.01,2.01,0,0,0,.026.331q.053.291.079.476a1.966,1.966,0,0,0,.079.344.744.744,0,0,1,.026.172.165.165,0,0,0,.053.119,1.038,1.038,0,0,1,.106.318v.132a1.928,1.928,0,0,1-.026.318,1.4,1.4,0,0,1-.079.291,1.974,1.974,0,0,0-.079.37q-.238.185-.265.2a.863.863,0,0,1-.132.04q-.106.026-.37.079-.344.053-.4.066a.517.517,0,0,0-.106.04,1,1,0,0,1-.265-.013q0-.013-.026-.013a.825.825,0,0,1-.238.013.184.184,0,0,0-.079-.013,2.1,2.1,0,0,0-.45.026q-.185,0-.318.013t-.265.013a1.174,1.174,0,0,0-.37.079,2.641,2.641,0,0,1-.318.053,2.109,2.109,0,0,1-.476.04,1.536,1.536,0,0,0-.344.013q-.291.026-.318.026a.623.623,0,0,1-.3-.026Q39.275-180.55,39.117-180.6Zm-.45-3.758q-.026-.37-.053-.542a1.679,1.679,0,0,0-.053-.251,1.046,1.046,0,0,1-.04-.318.214.214,0,0,0-.013-.132,4.32,4.32,0,0,1-.079-.609,1,1,0,0,0-.053-.318,2.686,2.686,0,0,0-.079-.278q-.026-.066-.053-.119-.185-.159-.238-.132a.173.173,0,0,0-.079.079q-.238.159-.265.185a1.686,1.686,0,0,0-.291.185q-.132.106-.159.132l-.079.079a1.879,1.879,0,0,1-.265.2q0-.013-.026.013a1.973,1.973,0,0,0-.318.251.579.579,0,0,1-.132.119.787.787,0,0,1-.119.212,1.861,1.861,0,0,0-.119.159.412.412,0,0,1,.053.172.6.6,0,0,1-.053.2q.185.212.265.212a.46.46,0,0,0,.185.079.235.235,0,0,1,.106.026.85.85,0,0,1,.185.146q.026.04.053.04a1.089,1.089,0,0,0,.3.106.743.743,0,0,1,.172.026,2.308,2.308,0,0,0,.278.066.487.487,0,0,1,.146.04,1.828,1.828,0,0,0,.49.2.583.583,0,0,0,.331-.013Zm13.756-3.466a.159.159,0,0,0,.106-.106.332.332,0,0,1,.079-.132,4.216,4.216,0,0,1,.04-.6q.04-.278.093-.569a1.845,1.845,0,0,0,.079-.318,2,2,0,0,0,.026-.37q.026-.079.053-.172t.053-.172a.64.64,0,0,1,.026-.265.108.108,0,0,0,.026-.079,1.16,1.16,0,0,0,.093-.265q-.013,0-.013-.026,0-.053.013-.172a.548.548,0,0,1,.04-.172,1.043,1.043,0,0,0,.04-.278.1.1,0,0,1-.013-.066l.079-.318a1.077,1.077,0,0,1,.053-.265.235.235,0,0,0,.026-.106,1.065,1.065,0,0,0,.026-.291,1.186,1.186,0,0,1,.04-.37q.04-.106.066-.185a2.591,2.591,0,0,1,.053-.384.719.719,0,0,0,.026-.2,1.448,1.448,0,0,0,.053-.318q.026-.132.079-.344l.053-.159a.5.5,0,0,0,.026-.159.459.459,0,0,0,.013-.185.326.326,0,0,1,.013-.159.409.409,0,0,1,.04-.185.906.906,0,0,0,.066-.185.87.87,0,0,0,.026-.212.326.326,0,0,1,.053-.185,1.154,1.154,0,0,1,.172-.265.435.435,0,0,0,.066-.053l.318-.026a2.545,2.545,0,0,1,.5-.04q.132.013.212.013a1.035,1.035,0,0,0,.238-.013.117.117,0,0,1,.053-.013.83.83,0,0,1,.357-.026.574.574,0,0,0,.3-.026,1.227,1.227,0,0,0,.291.013.117.117,0,0,1,.053-.013.387.387,0,0,0,.2.04.613.613,0,0,1,.119-.013.47.47,0,0,1,.172.026.564.564,0,0,0,.2.026,3.025,3.025,0,0,0,.609.079,1.138,1.138,0,0,1,.185.013,1.14,1.14,0,0,0,.185.013q.238,0,.542-.013t.569-.013q.212.265.318.37a.167.167,0,0,0,.013.146.278.278,0,0,1,.04.146,2.944,2.944,0,0,0,.053.437.329.329,0,0,0,.079.146,1.46,1.46,0,0,0,.013.3.054.054,0,0,1,.013.04l.026.344a1.39,1.39,0,0,1,.066.384.743.743,0,0,0-.013.146,2.852,2.852,0,0,1,.079.423v.318q.026.079.066.172a.29.29,0,0,1-.013.225.216.216,0,0,1,.04.159.459.459,0,0,0,.013.185l.053.318a1.487,1.487,0,0,1,.053.344.821.821,0,0,1,.026.2.541.541,0,0,0,.026.172,1.487,1.487,0,0,0,.053.344,3.9,3.9,0,0,1,.132.423q.026.212.026.238a.2.2,0,0,0,.026.079l.053.37a2.777,2.777,0,0,0,.079.37,1.566,1.566,0,0,1,.079.357.541.541,0,0,0,.026.172,2.985,2.985,0,0,0,.053.37q.132.265.106.278t.026.04q.212.212.265.212a5.14,5.14,0,0,0,.225-.847q.04-.291.093-.582a2.089,2.089,0,0,1,.079-.318.371.371,0,0,0,.013-.172.371.371,0,0,1,.013-.172.586.586,0,0,1,.026-.185,1.832,1.832,0,0,0,.053-.212q.053-.265.053-.291l.079-.291q0-.053.013-.185a.587.587,0,0,1,.04-.185q.053-.238.026-.265a.033.033,0,0,1,0-.053l.053-.318a2.747,2.747,0,0,0,.106-.318.2.2,0,0,1,.026-.079v-.318a1.567,1.567,0,0,1,.066-.344.507.507,0,0,0,.04-.159,2.33,2.33,0,0,1,.053-.4,1.831,1.831,0,0,0,.053-.212.5.5,0,0,0,.026-.159.5.5,0,0,1,.026-.159.5.5,0,0,0,.026-.159.426.426,0,0,1,.053-.185.5.5,0,0,1,.026-.159l.053-.159a.459.459,0,0,0,.013-.185.964.964,0,0,1-.013-.159q.026-.079.053-.172t.053-.2a.47.47,0,0,0,.053-.212.586.586,0,0,1,.026-.185q.185-.291.238-.291a.882.882,0,0,1,.265-.04.184.184,0,0,0,.079.013,1.392,1.392,0,0,1,.49-.053,1.353,1.353,0,0,0,.225.026,2.14,2.14,0,0,1,.648-.079.574.574,0,0,0,.3-.026q.212.053.238.026t.079,0a.515.515,0,0,0,.2.013,1.094,1.094,0,0,1,.146-.013,1.045,1.045,0,0,0,.159.04,1.342,1.342,0,0,0,.212.013l.609.079a1.555,1.555,0,0,0,.37.053,1.405,1.405,0,0,0,.2-.013,1.621,1.621,0,0,1,.225-.013q.159,0,.344-.013a1.46,1.46,0,0,1,.344.013.675.675,0,0,1,.212.37,1.5,1.5,0,0,1-.013.278.727.727,0,0,1-.04.093.657.657,0,0,0-.066.265.149.149,0,0,1-.013.106,1.218,1.218,0,0,0-.093.384.18.18,0,0,1-.013.119,1.553,1.553,0,0,0-.185.476.3.3,0,0,1-.106.212,1.328,1.328,0,0,1-.106.41,2.473,2.473,0,0,0-.132.357,4.444,4.444,0,0,1-.146.49q-.066.172-.119.331a.936.936,0,0,0-.079.251,1.439,1.439,0,0,1-.079.278.817.817,0,0,0-.106.3.541.541,0,0,1-.026.172.638.638,0,0,0-.093.225.249.249,0,0,1-.066.146.981.981,0,0,0-.066.318.354.354,0,0,1-.013.159.4.4,0,0,0-.066.212.149.149,0,0,1-.013.106.452.452,0,0,0-.079.212.284.284,0,0,1-.053.159q-.026.106-.053.2a1.162,1.162,0,0,1-.079.2.539.539,0,0,1-.013.265q-.04.132-.093.265-.026.106-.04.172t-.04.172a1.621,1.621,0,0,1-.185.529,1.651,1.651,0,0,1-.106.41,3.179,3.179,0,0,0-.132.41v.172a.541.541,0,0,1-.026.172,4.357,4.357,0,0,0-.172.463,2.564,2.564,0,0,1-.093.278q-.106.37-.159.5a2.041,2.041,0,0,0-.106.45.586.586,0,0,1-.026.185q-.079.212-.093.251a.293.293,0,0,0-.013.093,2.351,2.351,0,0,0-.146.41.487.487,0,0,1-.04.146,1.014,1.014,0,0,0-.066.225,1.014,1.014,0,0,1-.066.225q-.053.212-.119.41t-.119.41a.639.639,0,0,0-.079.212.435.435,0,0,1-.026.132.874.874,0,0,0-.053.146.872.872,0,0,1-.053.146.843.843,0,0,0-.106.318l-.079.318a.779.779,0,0,1-.079.2.778.778,0,0,0-.079.2q-.212.185-.318.291a.659.659,0,0,0-.2.013.176.176,0,0,1-.093.013q-.318.079-.423.119a.539.539,0,0,1-.185.04h-.45a.843.843,0,0,0-.212.013A.184.184,0,0,1,62-180.5a1.287,1.287,0,0,0-.318-.04.184.184,0,0,1-.079.013,1.764,1.764,0,0,1-.37-.04.7.7,0,0,0-.4.04.421.421,0,0,0-.357-.053.573.573,0,0,1-.384-.026,2.948,2.948,0,0,1-.423.066,1.46,1.46,0,0,1-.344-.013.576.576,0,0,1-.225-.093.224.224,0,0,0-.225-.013l-.265-.159q-.159-.212-.265-.37a3.569,3.569,0,0,0-.185-.37,2.132,2.132,0,0,1-.146-.423.264.264,0,0,0-.066-.159.612.612,0,0,0-.053-.251q-.053-.119-.106-.225-.026-.079-.053-.172a.567.567,0,0,1-.026-.146l-.106-.344a4.359,4.359,0,0,1-.172-.463,2.566,2.566,0,0,0-.093-.278,1.134,1.134,0,0,1-.079-.265.435.435,0,0,0-.026-.132q-.026-.053-.053-.119a.283.283,0,0,1,0-.172q-.053-.132-.093-.265a2.206,2.206,0,0,1-.066-.318,1.64,1.64,0,0,1-.212-.635q-.132.238-.146.278a.725.725,0,0,1-.04.093,1.39,1.39,0,0,1-.079.3.865.865,0,0,0-.053.093.419.419,0,0,0-.013.185.264.264,0,0,1-.04.185q-.106.291-.132.344a.754.754,0,0,1-.053.265.308.308,0,0,0-.053.079l-.159.476a1.508,1.508,0,0,0-.079.265,1.508,1.508,0,0,1-.079.265q-.053.212-.106.4t-.106.423a1.043,1.043,0,0,0-.132.37.656.656,0,0,0-.066.2.656.656,0,0,1-.066.2l-.053.212a.588.588,0,0,1-.079.185q-.265.318-.37.45a1.255,1.255,0,0,0-.291.026q-.318.079-.41.106t-.225.053a1.574,1.574,0,0,0-.331-.013.613.613,0,0,1-.119.013,3.042,3.042,0,0,1-.37-.013.832.832,0,0,0-.132-.013,2.14,2.14,0,0,1-.556-.013.754.754,0,0,0-.37.013.523.523,0,0,0-.37-.026.608.608,0,0,1-.4-.026q-.238.026-.41.04a1.635,1.635,0,0,1-.357-.013.377.377,0,0,1-.225-.066.224.224,0,0,0-.225-.013q-.265-.212-.291-.238l-.079-.079a2.588,2.588,0,0,1-.212-.331.167.167,0,0,0-.079-.093q-.053-.212-.079-.291a1.173,1.173,0,0,1-.093-.291.264.264,0,0,0-.066-.159.612.612,0,0,0-.053-.251q-.053-.119-.106-.251a.423.423,0,0,1-.066-.185.514.514,0,0,0-.04-.159,1.137,1.137,0,0,0-.119-.331.127.127,0,0,1-.04-.093,4.033,4.033,0,0,1-.119-.423,1.981,1.981,0,0,0-.093-.318.47.47,0,0,1-.04-.132,1.044,1.044,0,0,0-.04-.159,1.731,1.731,0,0,1-.106-.185.175.175,0,0,1,0-.185.676.676,0,0,1-.066-.185q-.013-.079-.04-.185a2.172,2.172,0,0,1-.185-.45.613.613,0,0,0-.013-.119q-.013-.066-.04-.172-.079-.291-.106-.384a1.161,1.161,0,0,0-.079-.2l-.079-.238-.053-.159a1.619,1.619,0,0,0-.106-.344l-.079-.318a2.456,2.456,0,0,0-.132-.423q-.132-.344-.159-.4a1.69,1.69,0,0,0-.106-.4.5.5,0,0,1-.026-.159.777.777,0,0,0-.026-.185,1.654,1.654,0,0,0-.079-.331.591.591,0,0,1-.026-.3q-.106-.265-.119-.291a.184.184,0,0,1-.013-.079,1.7,1.7,0,0,0-.106-.37l-.079-.4q-.026-.106-.053-.2t-.079-.225a.249.249,0,0,1-.066-.146.983.983,0,0,0-.04-.172l-.106-.476a1.215,1.215,0,0,0-.265-.609,1.389,1.389,0,0,0-.079-.3.865.865,0,0,1-.053-.093.82.82,0,0,1-.026-.2.446.446,0,0,0-.053-.2.906.906,0,0,0-.066-.185.409.409,0,0,1-.04-.185.862.862,0,0,1-.079-.238.235.235,0,0,0-.026-.106,1.273,1.273,0,0,1-.079-.251.213.213,0,0,0-.026-.093,1.785,1.785,0,0,1-.04-.212.423.423,0,0,0-.066-.185.943.943,0,0,1-.132-.251q0-.04-.053-.04a1.9,1.9,0,0,1,.04-.291.094.094,0,0,0-.013-.079.411.411,0,0,0,.066-.172,1.015,1.015,0,0,1,.066-.225,1.479,1.479,0,0,1,.159-.093.352.352,0,0,1,.159-.04q.37.053.45.053a.378.378,0,0,0,.2,0,.719.719,0,0,1,.2-.026,2.641,2.641,0,0,1,.318-.053,1.222,1.222,0,0,1,.172.013,1.4,1.4,0,0,0,.2.013q.185.053.212.066a.184.184,0,0,0,.079.013.286.286,0,0,0,.172,0,.286.286,0,0,1,.172,0,.435.435,0,0,1,.132.026.5.5,0,0,0,.159.026,1.156,1.156,0,0,0,.251-.026.6.6,0,0,1,.251,0,.707.707,0,0,0,.318-.013.15.15,0,0,1,.185.066.285.285,0,0,1,.159-.053h.212q.291.026.291,0t.053-.053l.344-.026q.291.053.344.132a.178.178,0,0,0,.159.079,2.867,2.867,0,0,0,.146.357.732.732,0,0,1,.066.146,1.676,1.676,0,0,0,.079.609,1.23,1.23,0,0,0,.013.278.054.054,0,0,1,.013.04,1.487,1.487,0,0,0,.053.344,2.33,2.33,0,0,1,.04.463.515.515,0,0,0,.013.2.927.927,0,0,1,.053.291.756.756,0,0,0,.026.291.5.5,0,0,0,.04.2.29.29,0,0,1-.013.225.162.162,0,0,1,.04.146.371.371,0,0,0,.013.172.827.827,0,0,1,.066.251q-.013.013.013.066a1.487,1.487,0,0,0,.053.344,2.192,2.192,0,0,0,.026.4.619.619,0,0,1,.04.238.149.149,0,0,0,.013.106.677.677,0,0,1,.106.251,1.114,1.114,0,0,0,.026.2,1.237,1.237,0,0,0,.04.212.184.184,0,0,1,.013.079,1.785,1.785,0,0,1,.04.212,1.784,1.784,0,0,0,.04.212q.026.079.053.146t.053.146l.079.476q.053.37.053.423a.406.406,0,0,0,.053.159.733.733,0,0,1,.066.172q.013.066.119.119ZM77.9-192.934q-.238.132-.251.146a.054.054,0,0,0-.013.04,3.388,3.388,0,0,1-.609.185,1.117,1.117,0,0,0-.344.106,2.179,2.179,0,0,0-.45.291,3.85,3.85,0,0,1-.4.318,2.881,2.881,0,0,1-.4.582.539.539,0,0,0-.159.4.451.451,0,0,1,.079.2.263.263,0,0,0,.026.119.435.435,0,0,0,.026.132.424.424,0,0,1,0,.212.614.614,0,0,1,.093.119.615.615,0,0,0,.093.119.927.927,0,0,1,.132.265q.053.159.106.291a.43.43,0,0,1,.212.185.728.728,0,0,0,.185.212,1.686,1.686,0,0,0,.185.291q.159.238.185.238a1.07,1.07,0,0,1,.291.423.578.578,0,0,0,.119.132,1.444,1.444,0,0,1,.119.106l.212.318.291.37a1.139,1.139,0,0,0,.079.172.864.864,0,0,1,.053.093.731.731,0,0,0,.119.265.089.089,0,0,1,.04.079l.079.344a1.088,1.088,0,0,1,.119.41.371.371,0,0,0,.013.172q.079.212.106.291l.053.291a7.8,7.8,0,0,0-.265.847,1.115,1.115,0,0,1-.225.331.156.156,0,0,0-.066.146q-.212.159-.225.212t-.066.026a1.435,1.435,0,0,0-.159.265q0,.026-.053.079a.423.423,0,0,1-.146.132.365.365,0,0,0-.146.159.637.637,0,0,0-.4.344,1.632,1.632,0,0,1-.265.2.308.308,0,0,0-.132.146.562.562,0,0,0-.357.225.681.681,0,0,1-.331.251q-.079.079-.159.146t-.159.146q-.159.079-.172.132a.168.168,0,0,1-.04.079l-.2.066a.261.261,0,0,0-.093.066q-.291.159-.318.265a.55.55,0,0,0-.291.119.823.823,0,0,1-.238.146,2.3,2.3,0,0,1-.3.238.326.326,0,0,1-.146.053.843.843,0,0,0-.344.106l-.106.106a1.946,1.946,0,0,0-.212.079l-.106.053a1.244,1.244,0,0,0-.225.093.237.237,0,0,1-.119.04.424.424,0,0,1-.251-.053.465.465,0,0,0-.2-.079q-.053-.106-.119-.212a.424.424,0,0,0-.172-.159,1.851,1.851,0,0,1-.132-.265q-.106-.132-.146-.185a.114.114,0,0,0-.093-.053l-.185-.37a1.732,1.732,0,0,0-.291-.476,1.527,1.527,0,0,1-.132-.265.076.076,0,0,0-.026-.053q-.053-.079-.093-.132a.464.464,0,0,1-.066-.132.819.819,0,0,1-.238-.331.97.97,0,0,0-.212-.331l-.185-.291q-.159-.238-.185-.265t0-.079a2.476,2.476,0,0,1-.159-.318,1.094,1.094,0,0,1-.132-.344q-.053-.212-.026-.238a.308.308,0,0,0,.053-.079,1.308,1.308,0,0,0,.053-.225.213.213,0,0,1,.026-.093.586.586,0,0,1,.238-.185,3.852,3.852,0,0,1,.423-.159.588.588,0,0,0,.185-.079,1.256,1.256,0,0,0,.357-.132.464.464,0,0,1,.2-.079q.291-.159.344-.2a.464.464,0,0,1,.132-.066.231.231,0,0,1,.119-.066.417.417,0,0,0,.146-.066.579.579,0,0,0,.132-.119q.053-.066.106-.146a.731.731,0,0,0,.172-.212q.013-.053.066-.026a3.054,3.054,0,0,1,.2-.476.429.429,0,0,0,.04-.291,1.447,1.447,0,0,0-.053-.318.706.706,0,0,0-.132-.185.22.22,0,0,1-.053-.212q-.212-.291-.265-.357a.467.467,0,0,0-.159-.119,1.185,1.185,0,0,1-.265-.344,1.086,1.086,0,0,0-.212-.212.173.173,0,0,1-.079-.079.867.867,0,0,0-.106-.132l-.106-.106a1.521,1.521,0,0,0-.146-.265q-.013,0-.013-.026-.238-.185-.251-.238a.517.517,0,0,0-.04-.106q-.185-.238-.238-.291a.866.866,0,0,1-.106-.132,1.428,1.428,0,0,1-.225-.291,1.428,1.428,0,0,0-.225-.291.781.781,0,0,0-.291-.582.906.906,0,0,1-.146-.291.094.094,0,0,0-.013-.079,1.17,1.17,0,0,1-.066-.41q.013-.146.013-.331a.833.833,0,0,1,.026-.4q.026-.132.053-.291a2.088,2.088,0,0,1,.079-.318,1.429,1.429,0,0,1,.238-.476q.132-.212.172-.265t.093-.132l.146-.146.093-.093q.212-.265.291-.344a.5.5,0,0,0,.185-.172.172.172,0,0,1,.159-.093l.318-.37a2.007,2.007,0,0,1,.185-.146.143.143,0,0,0,.053-.066,1.139,1.139,0,0,1,.291-.291,2.407,2.407,0,0,0,.238-.159.308.308,0,0,1,.079-.053,1.435,1.435,0,0,1,.265-.159q.185-.159.238-.2a.7.7,0,0,1,.106-.066,1.817,1.817,0,0,1,.344-.106,2.241,2.241,0,0,1,.45-.238q.132-.159.2-.159a.165.165,0,0,0,.119-.053l.251-.093a.218.218,0,0,1,.066-.013.883.883,0,0,0,.344-.185,2.767,2.767,0,0,0,.437-.159.779.779,0,0,1,.2-.079.927.927,0,0,0,.344,0,.108.108,0,0,1,.079-.026q.159.026.291.053a.645.645,0,0,1,.2.066l.2.119a.467.467,0,0,1,.159.119.578.578,0,0,0,.132.119q.106.265.146.37a.907.907,0,0,0,.093.185.729.729,0,0,1,.132.291l.185.4.265.45a1.7,1.7,0,0,0,.185.4,1.035,1.035,0,0,1,.132.238,2.907,2.907,0,0,1,.132.344.2.2,0,0,0,.026.079.639.639,0,0,1,.079.212.235.235,0,0,0,.026.106q.159.344.185.423t.079.212a1.585,1.585,0,0,1,.053.212.2.2,0,0,0,.026.079q.026.159.04.251A.25.25,0,0,1,77.9-192.934Zm7.961-8.494a.333.333,0,0,1,.2.106q.066.079.146.159a3.4,3.4,0,0,1,.132.582,4.619,4.619,0,0,0,.013.463,1.869,1.869,0,0,1,.013.251.877.877,0,0,1-.013.185.557.557,0,0,0-.013.132.326.326,0,0,0-.013.159,1.14,1.14,0,0,1,.013.185,1.916,1.916,0,0,1,0,.45,1.289,1.289,0,0,1-.106.291l-.185.265a.753.753,0,0,0-.132.159.173.173,0,0,1-.079.079q-.344.132-.49.172t-.278.066a1.459,1.459,0,0,0-.291.053,1.094,1.094,0,0,0-.146.013,1.094,1.094,0,0,1-.146.013l-.318.026a1.433,1.433,0,0,1-.238-.04.117.117,0,0,0-.053-.013,1.589,1.589,0,0,1-.4.04q-.106-.013-.238-.04a3.012,3.012,0,0,1-.384-.013.406.406,0,0,0-.172.013,1.72,1.72,0,0,0-.45,0h-.529a2.565,2.565,0,0,0-.251-.238q-.013,0-.04-.053l-.238-.238a2.509,2.509,0,0,0-.079-.609l-.053-.529v-.344a1.857,1.857,0,0,1,.053-.529.793.793,0,0,1,.053-.384.228.228,0,0,0,.053-.146q.159-.238.185-.291a.415.415,0,0,1,.079-.106l.476-.212.4-.132a1.027,1.027,0,0,0,.132-.053h.4l.37-.079q.106-.026.225-.053a1.039,1.039,0,0,1,.225-.026.964.964,0,0,1,.159.013.964.964,0,0,0,.159.013.964.964,0,0,0,.159-.013,1.14,1.14,0,0,1,.185-.013,2.537,2.537,0,0,1,.384.026.83.83,0,0,0,.357-.026.677.677,0,0,1,.291.013,1.884,1.884,0,0,1,.344.093Zm.4,20.216a.191.191,0,0,1-.053.2.128.128,0,0,0-.053.146l-.37.079a1.889,1.889,0,0,1-.476.159,1.441,1.441,0,0,1-.437.04q-.225-.013-.516-.04-.291.026-.41.026h-.622q-.265.026-.291.026a1.5,1.5,0,0,0-.384.04.931.931,0,0,1-.2.04h-.37l-.37-.079a1.705,1.705,0,0,0-.212.013.748.748,0,0,1-.238-.013q-.132-.053-.212-.093a.409.409,0,0,0-.185-.04,1.818,1.818,0,0,1-.132-.331.09.09,0,0,0-.026-.066.4.4,0,0,1-.066-.251,2.042,2.042,0,0,0,.013-.225.964.964,0,0,0-.013-.159.831.831,0,0,1-.013-.132.5.5,0,0,1,.026-.159.586.586,0,0,0,.026-.185,1.673,1.673,0,0,0,.04-.238q.013-.132.04-.265a2.843,2.843,0,0,0,.026-.331v-.172a.541.541,0,0,0,.026-.172.82.82,0,0,1,.026-.2.594.594,0,0,0,0-.251.629.629,0,0,1-.026-.172,1.4,1.4,0,0,1,.013-.159,1.933,1.933,0,0,0,.013-.238q0-.185-.013-.344t-.013-.318a2.229,2.229,0,0,1,.053-.4v-.344a5.4,5.4,0,0,0,.026-.582q0-.344-.026-.635v-.291q.026-.318.04-.49a1.635,1.635,0,0,0-.013-.357.743.743,0,0,0-.013-.146.743.743,0,0,1-.013-.146,1.226,1.226,0,0,1-.026-.238v-.238a.857.857,0,0,0-.013-.2.293.293,0,0,1-.013-.093v-.476a.893.893,0,0,1,0-.331.163.163,0,0,0,.026-.093,3.808,3.808,0,0,1,.013-.41,1.4,1.4,0,0,0,.013-.2v-.291a3.28,3.28,0,0,0-.026-.556,1.845,1.845,0,0,1-.079-.318v-.4a2.068,2.068,0,0,0-.013-.3.406.406,0,0,1,.013-.172q0-.185-.013-.37t-.013-.4a.642.642,0,0,1,0-.265.5.5,0,0,0,.026-.159v-.741a2.246,2.246,0,0,1,0-.688.771.771,0,0,1,.106-.318,1.289,1.289,0,0,1,.106-.291,1.288,1.288,0,0,1,.476-.423,1.071,1.071,0,0,0,.225-.119.286.286,0,0,1,.146-.066,1.858,1.858,0,0,1,.318-.053,3.206,3.206,0,0,1,.582,0,2.151,2.151,0,0,0,.582-.026.663.663,0,0,1,.318.013.2.2,0,0,0,.185-.013,2.732,2.732,0,0,1,.437-.013,1.091,1.091,0,0,0,.146.013.61.61,0,0,1,.291-.026h.476a1.518,1.518,0,0,1,.185.013.264.264,0,0,1,.159.066.482.482,0,0,1,.291-.053.481.481,0,0,1,.119.106.172.172,0,0,0,.146.053,1.141,1.141,0,0,0,.185.318q.079.238.185.5a.854.854,0,0,1,.053.318,3.21,3.21,0,0,0,.026.4,1.7,1.7,0,0,0,.013.212,1.518,1.518,0,0,1,.013.185q0,.132-.013.265t-.04.265q-.026.4-.026.648a4.433,4.433,0,0,1-.026.49q-.026.132-.04.265t-.013.265a.72.72,0,0,0,.026.2.719.719,0,0,1,.026.2,3.736,3.736,0,0,1-.026.437q-.026.225-.053.463-.026.212-.053.41a3.318,3.318,0,0,0-.026.437.831.831,0,0,0,.013.132.963.963,0,0,1,.013.159,1.622,1.622,0,0,1-.013.225,1.622,1.622,0,0,0-.013.225q0,.132.013.265a.89.89,0,0,1-.013.265,1.156,1.156,0,0,1-.026.251,1.157,1.157,0,0,0-.026.251,1.7,1.7,0,0,0,0,.423,3.411,3.411,0,0,1,.026.423,1.346,1.346,0,0,1-.026.265.668.668,0,0,0,0,.265,2.2,2.2,0,0,1,.053.609,1.123,1.123,0,0,0,0,.344,2.1,2.1,0,0,1,.013.384,1.093,1.093,0,0,0-.013.146v.688a1.256,1.256,0,0,1-.026.291.6.6,0,0,1,.053.437.523.523,0,0,0,.053.41,1.17,1.17,0,0,0-.04.4,1.464,1.464,0,0,0,.066.37l.026.714q.026.159.04.331t.013.3l-.026.291Zm10.369-19.925a.164.164,0,0,1,.053.119.744.744,0,0,0,.026.172,1.323,1.323,0,0,1,0,.529V-200q-.026.4-.053.609a1.3,1.3,0,0,0,0,.37.481.481,0,0,1,0,.225.629.629,0,0,0-.026.172.963.963,0,0,0,.013.159.832.832,0,0,1,.013.132,1.156,1.156,0,0,1-.026.251,1.156,1.156,0,0,0-.026.251,6.128,6.128,0,0,0,0,1.138.319.319,0,0,0-.079.318.138.138,0,0,0,.146.026.568.568,0,0,1,.146-.026A.454.454,0,0,0,97-196.4a.3.3,0,0,1,.132-.026,1.616,1.616,0,0,1,.542-.013.9.9,0,0,0,.463-.04.971.971,0,0,0,.265.066.273.273,0,0,1,.212.146.957.957,0,0,1,.185.45q.159.265.132.291a.108.108,0,0,0-.026.079.694.694,0,0,1,.04.265,1.139,1.139,0,0,0-.013.185,2.086,2.086,0,0,1-.04.251.293.293,0,0,0-.013.093.965.965,0,0,0-.013.278.46.46,0,0,1-.04.251,1.487,1.487,0,0,1,.053.344,3.255,3.255,0,0,0-.04.847,1.816,1.816,0,0,1-.013.582,1.972,1.972,0,0,0-.04.2.68.68,0,0,0,.013.225q-.106.185-.093.225t-.04.066a.191.191,0,0,1-.066.159.142.142,0,0,0-.04.159.451.451,0,0,0-.159.066q-.053.04-.159-.013a1.487,1.487,0,0,1-.635.026h-.662a1.238,1.238,0,0,0-.476-.079.984.984,0,0,1-.238.026.364.364,0,0,0-.04.212,1.935,1.935,0,0,1,.013.238v.476q0,.238-.013.437t-.04.463a3.808,3.808,0,0,0,.013.41,1.222,1.222,0,0,1,.013.172,2.012,2.012,0,0,1-.013.516.965.965,0,0,0,.066.516,1.25,1.25,0,0,1,0,.384.325.325,0,0,0-.026.119,2.945,2.945,0,0,0,.053.437q.026.093.053.172a1.246,1.246,0,0,0,.013.265.184.184,0,0,1,.013.079l.053.159a.5.5,0,0,1,.026.159.628.628,0,0,1,.225.132.7.7,0,0,1,.066.106.973.973,0,0,1,.476.238.688.688,0,0,1,.212.026l.238.079a2.38,2.38,0,0,0,.5,0,1.814,1.814,0,0,1,.344-.026l.344-.053a.646.646,0,0,0,.238-.053.108.108,0,0,1,.079-.026,1.1,1.1,0,0,0,.384-.079.779.779,0,0,1,.2-.079.842.842,0,0,0,.212-.013.184.184,0,0,1,.079-.013,1.648,1.648,0,0,0,.331.159q.04,0,.04.053a.254.254,0,0,1,.026.185,1.3,1.3,0,0,1-.079.132v.344a.65.65,0,0,1-.053.238,2.427,2.427,0,0,1-.132.318.47.47,0,0,0-.04.132,1.046,1.046,0,0,1-.04.159,2.1,2.1,0,0,0-.159.437,2.221,2.221,0,0,1-.079.3,1.875,1.875,0,0,0-.079.238.6.6,0,0,1-.106.212q-.106.37-.132.529a.827.827,0,0,0-.066.251q.013.013-.013.04a3.508,3.508,0,0,0-.093.4.979.979,0,0,1-.066.238l-.106.37a2.978,2.978,0,0,1-.185.318q-.238.212-.265.225a.376.376,0,0,0-.079.066,1.69,1.69,0,0,0-.265.053.332.332,0,0,0-.132.079.472.472,0,0,0-.344.106,1.279,1.279,0,0,0-.318-.013q-.159.013-.423.013a1.035,1.035,0,0,0-.238.013.117.117,0,0,1-.053.013,1.343,1.343,0,0,0-.37-.053,2.817,2.817,0,0,0-.291-.026,1,1,0,0,1-.4-.053,2.722,2.722,0,0,0-.357-.04,2.723,2.723,0,0,1-.357-.04q-.159-.026-.331-.04t-.357-.04q-.265-.132-.278-.146a.054.054,0,0,0-.04-.013l-.318-.159a1.034,1.034,0,0,1-.331-.079.143.143,0,0,0-.066-.053q-.423-.185-.476-.37-.265-.106-.265-.132t-.053-.053q-.212-.185-.212-.238a2.439,2.439,0,0,0-.238-.251.253.253,0,0,1-.079-.146q-.212-.291-.225-.318a.376.376,0,0,0-.066-.079.329.329,0,0,1-.079-.146.61.61,0,0,0-.079-.172,4.532,4.532,0,0,1-.2-.569,2.085,2.085,0,0,0-.093-.3q-.026-.132-.04-.225t-.04-.225a1.673,1.673,0,0,1-.04-.238,1.356,1.356,0,0,0-.066-.291l-.026-.291a.725.725,0,0,1-.093-.291.435.435,0,0,0,.013-.106.757.757,0,0,1,0-.4.344.344,0,0,1-.04-.278q.04-.146.066-.278a1.623,1.623,0,0,0-.013-.225,1.405,1.405,0,0,1-.013-.2.984.984,0,0,1,.026-.238.984.984,0,0,0,.026-.238.818.818,0,0,0,.013-.251,2.277,2.277,0,0,1-.013-.251v-.82a2.817,2.817,0,0,0,.026-.291v-.45a1.405,1.405,0,0,1,.013-.2,1.4,1.4,0,0,0,.013-.2,1.544,1.544,0,0,1-.013-.331,1.4,1.4,0,0,0,.013-.2v-.37a4.312,4.312,0,0,1-.053-.516,1.852,1.852,0,0,0-.026-.3q-.212.053-.476.106a5.264,5.264,0,0,1-.556.079,1.624,1.624,0,0,1-.225-.013,1.094,1.094,0,0,0-.146-.013.951.951,0,0,1-.251-.026q-.093-.026-.172-.053a3.753,3.753,0,0,0-.344-.212.488.488,0,0,0-.132-.2.489.489,0,0,1-.132-.2.427.427,0,0,1-.013-.278,1.259,1.259,0,0,0,.04-.331v-.238a1.226,1.226,0,0,0-.026-.238.924.924,0,0,0,.026-.225.41.41,0,0,0-.026-.172.981.981,0,0,1-.066-.291.275.275,0,0,0,.013-.106,2.817,2.817,0,0,1-.026-.291v-.132q-.026-.212-.04-.41t-.013-.384a.676.676,0,0,1,0-.291.108.108,0,0,0,.026-.079,1.458,1.458,0,0,1-.013-.318.488.488,0,0,0-.013-.185q.053-.238.079-.238t.053-.053l.344-.37a.378.378,0,0,0,.278,0,.884.884,0,0,1,.3-.053l.344.026a1.112,1.112,0,0,1,.5.106,1.342,1.342,0,0,1,.37.026.235.235,0,0,0,.106.026.17.17,0,0,0,.132,0,.329.329,0,0,1,.185,0,.565.565,0,0,0-.026-.291,2.885,2.885,0,0,1-.013-.49,2.516,2.516,0,0,0-.013-.463v-.423a2.022,2.022,0,0,1,.013-.331.121.121,0,0,0-.013-.093q-.053-.265-.053-.291a.743.743,0,0,0-.026-.344.262.262,0,0,0-.013-.185.906.906,0,0,1-.066-.185.515.515,0,0,1-.013-.2.515.515,0,0,0-.013-.2,1.372,1.372,0,0,0-.053-.172.388.388,0,0,1-.026-.146,1.116,1.116,0,0,0-.026-.185,1.32,1.32,0,0,1-.026-.159,1.009,1.009,0,0,0,.013-.265.149.149,0,0,1,.013-.106.333.333,0,0,1,.132-.185.525.525,0,0,0,.159-.185,1.4,1.4,0,0,0,.45.04,3.867,3.867,0,0,0,.423-.04.214.214,0,0,1,.132-.013.964.964,0,0,0,.159.013.818.818,0,0,0,.251.013,2.042,2.042,0,0,1,.225-.013l.159.053q.079.026.185.053.265-.026.37-.026a.653.653,0,0,0,.212.013.094.094,0,0,1,.079.013,1.07,1.07,0,0,0,.212-.013.149.149,0,0,1,.106.013,3.542,3.542,0,0,0,.357.026.635.635,0,0,0,.2-.026h.278a.333.333,0,0,0,.225-.053,2.086,2.086,0,0,1,.251.04q.04.013.093-.04a.143.143,0,0,0,.132.04,1.14,1.14,0,0,1,.185-.013,1.1,1.1,0,0,1,.146.013,1.093,1.093,0,0,0,.146.013.679.679,0,0,0,.225.013.137.137,0,0,1,.146.093Zm10.951-.291a.333.333,0,0,1,.2.106q.066.079.146.159a3.4,3.4,0,0,1,.132.582,4.619,4.619,0,0,0,.013.463,1.869,1.869,0,0,1,.013.251.877.877,0,0,1-.013.185.557.557,0,0,0-.013.132.326.326,0,0,0-.013.159,1.139,1.139,0,0,1,.013.185,1.916,1.916,0,0,1,0,.45,1.29,1.29,0,0,1-.106.291l-.185.265a.753.753,0,0,0-.132.159.173.173,0,0,1-.079.079q-.344.132-.49.172t-.278.066a1.459,1.459,0,0,0-.291.053,1.094,1.094,0,0,0-.146.013,1.094,1.094,0,0,1-.146.013l-.318.026a1.432,1.432,0,0,1-.238-.04.117.117,0,0,0-.053-.013,1.589,1.589,0,0,1-.4.04q-.106-.013-.238-.04a3.012,3.012,0,0,1-.384-.013.406.406,0,0,0-.172.013,1.72,1.72,0,0,0-.45,0h-.529a2.564,2.564,0,0,0-.251-.238q-.013,0-.04-.053l-.238-.238a2.509,2.509,0,0,0-.079-.609l-.053-.529v-.344a1.857,1.857,0,0,1,.053-.529.793.793,0,0,1,.053-.384.228.228,0,0,0,.053-.146q.159-.238.185-.291a.414.414,0,0,1,.079-.106l.476-.212.4-.132a1.027,1.027,0,0,0,.132-.053h.4l.37-.079q.106-.026.225-.053a1.039,1.039,0,0,1,.225-.026.964.964,0,0,1,.159.013.964.964,0,0,0,.159.013.964.964,0,0,0,.159-.013,1.14,1.14,0,0,1,.185-.013,2.537,2.537,0,0,1,.384.026.83.83,0,0,0,.357-.026.677.677,0,0,1,.291.013,1.884,1.884,0,0,1,.344.093Zm.4,20.216a.191.191,0,0,1-.053.2.128.128,0,0,0-.053.146l-.37.079a1.889,1.889,0,0,1-.476.159,1.441,1.441,0,0,1-.437.04q-.225-.013-.516-.04-.291.026-.41.026h-.622q-.265.026-.291.026a1.5,1.5,0,0,0-.384.04.931.931,0,0,1-.2.04h-.37l-.37-.079a1.705,1.705,0,0,0-.212.013.748.748,0,0,1-.238-.013q-.132-.053-.212-.093a.409.409,0,0,0-.185-.04,1.819,1.819,0,0,1-.132-.331.09.09,0,0,0-.026-.066.4.4,0,0,1-.066-.251,2.04,2.04,0,0,0,.013-.225.963.963,0,0,0-.013-.159.831.831,0,0,1-.013-.132.5.5,0,0,1,.026-.159.586.586,0,0,0,.026-.185,1.674,1.674,0,0,0,.04-.238q.013-.132.04-.265a2.842,2.842,0,0,0,.026-.331v-.172a.541.541,0,0,0,.026-.172.82.82,0,0,1,.026-.2.594.594,0,0,0,0-.251.629.629,0,0,1-.026-.172,1.4,1.4,0,0,1,.013-.159,1.933,1.933,0,0,0,.013-.238q0-.185-.013-.344t-.013-.318a2.229,2.229,0,0,1,.053-.4v-.344a5.4,5.4,0,0,0,.026-.582q0-.344-.026-.635v-.291q.026-.318.04-.49a1.635,1.635,0,0,0-.013-.357.744.744,0,0,0-.013-.146.743.743,0,0,1-.013-.146,1.226,1.226,0,0,1-.026-.238v-.238a.857.857,0,0,0-.013-.2.293.293,0,0,1-.013-.093v-.476a.893.893,0,0,1,0-.331.163.163,0,0,0,.026-.093,3.808,3.808,0,0,1,.013-.41,1.405,1.405,0,0,0,.013-.2v-.291a3.281,3.281,0,0,0-.026-.556,1.845,1.845,0,0,1-.079-.318v-.4a2.069,2.069,0,0,0-.013-.3.406.406,0,0,1,.013-.172q0-.185-.013-.37t-.013-.4a.642.642,0,0,1,0-.265.5.5,0,0,0,.026-.159v-.741a2.246,2.246,0,0,1,0-.688.772.772,0,0,1,.106-.318,1.289,1.289,0,0,1,.106-.291,1.288,1.288,0,0,1,.476-.423,1.07,1.07,0,0,0,.225-.119.286.286,0,0,1,.146-.066,1.858,1.858,0,0,1,.318-.053,3.206,3.206,0,0,1,.582,0,2.151,2.151,0,0,0,.582-.026.663.663,0,0,1,.318.013.2.2,0,0,0,.185-.013,2.732,2.732,0,0,1,.437-.013,1.091,1.091,0,0,0,.146.013.61.61,0,0,1,.291-.026h.476a1.518,1.518,0,0,1,.185.013.264.264,0,0,1,.159.066.482.482,0,0,1,.291-.053.481.481,0,0,1,.119.106.172.172,0,0,0,.146.053,1.141,1.141,0,0,0,.185.318q.079.238.185.5a.855.855,0,0,1,.053.318,3.212,3.212,0,0,0,.026.4,1.7,1.7,0,0,0,.013.212,1.518,1.518,0,0,1,.013.185q0,.132-.013.265t-.04.265q-.026.4-.026.648a4.433,4.433,0,0,1-.026.49q-.026.132-.04.265t-.013.265a.72.72,0,0,0,.026.2.719.719,0,0,1,.026.2,3.736,3.736,0,0,1-.026.437q-.026.225-.053.463-.026.212-.053.41a3.318,3.318,0,0,0-.026.437.832.832,0,0,0,.013.132.963.963,0,0,1,.013.159,1.622,1.622,0,0,1-.013.225,1.624,1.624,0,0,0-.013.225q0,.132.013.265a.89.89,0,0,1-.013.265,1.157,1.157,0,0,1-.026.251,1.157,1.157,0,0,0-.026.251,1.7,1.7,0,0,0,0,.423,3.411,3.411,0,0,1,.026.423,1.346,1.346,0,0,1-.026.265.668.668,0,0,0,0,.265,2.2,2.2,0,0,1,.053.609,1.123,1.123,0,0,0,0,.344,2.1,2.1,0,0,1,.013.384,1.094,1.094,0,0,0-.013.146v.688a1.256,1.256,0,0,1-.026.291.6.6,0,0,1,.053.437.523.523,0,0,0,.053.41,1.17,1.17,0,0,0-.04.4,1.464,1.464,0,0,0,.066.37l.026.714q.026.159.04.331t.013.3l-.026.291Zm9.284-6.642a4.13,4.13,0,0,0,.212-.847q.026-.291.079-.582a1.433,1.433,0,0,1,.04-.238.184.184,0,0,0,.013-.079.446.446,0,0,0,.053-.2v-.172q.053-.238.066-.278a.294.294,0,0,0,.013-.093.551.551,0,0,1,.053-.318,1.675,1.675,0,0,0,.066-.3q-.013.013-.013-.013,0-.053.013-.172a.981.981,0,0,1,.04-.2,1.016,1.016,0,0,0,.013-.265.118.118,0,0,1-.013-.053l.079-.318q.026-.212.04-.278a.472.472,0,0,1,.04-.119,1.484,1.484,0,0,0,.04-.331.1.1,0,0,1-.013-.066.724.724,0,0,1,.026-.159q.026-.106.053-.185a1.733,1.733,0,0,1,.026-.384q.026-.093.053-.225a1.1,1.1,0,0,1,.013-.146,1.224,1.224,0,0,0,.013-.172q.053-.212.079-.344l.079-.318a1.139,1.139,0,0,0-.013-.185.326.326,0,0,1,.013-.159.409.409,0,0,1,.04-.185.906.906,0,0,0,.066-.185,1.226,1.226,0,0,0,.026-.238.586.586,0,0,1,.026-.185,1.563,1.563,0,0,1,.265-.318l.291-.026a2,2,0,0,1,.5-.066q.132.013.212.013a.737.737,0,0,0,.318-.053.78.78,0,0,1,.344-.026.415.415,0,0,0,.291-.053,1.074,1.074,0,0,0,.291.04.117.117,0,0,1,.053-.013.55.55,0,0,0,.2.013.743.743,0,0,1,.146-.013.5.5,0,0,1,.159.026.688.688,0,0,0,.212.026l.582.053a1.14,1.14,0,0,1,.185.013,1.138,1.138,0,0,0,.185.013q.238-.026.542-.04t.569-.013a.566.566,0,0,1,.238.37.645.645,0,0,1,0,.278.867.867,0,0,0-.053.093l-.053.4a.888.888,0,0,0-.093.357.25.25,0,0,1-.013.146,1.671,1.671,0,0,0-.159.49.24.24,0,0,1-.106.2,1.709,1.709,0,0,1-.093.437,3.3,3.3,0,0,0-.119.384,2.3,2.3,0,0,1-.093.3.1.1,0,0,0-.013.066.824.824,0,0,0-.132.265.108.108,0,0,1-.026.079.82.82,0,0,0-.053.159q-.026.106-.053.185a2.316,2.316,0,0,0-.132.529,1.015,1.015,0,0,0-.066.225.656.656,0,0,1-.066.2,1.458,1.458,0,0,0-.079.291,1.915,1.915,0,0,1-.066.3.054.054,0,0,0-.013.04.717.717,0,0,1-.079.344,1.46,1.46,0,0,1-.053.291,1.782,1.782,0,0,0-.04.212.423.423,0,0,1-.066.185.6.6,0,0,1-.013.278,2.569,2.569,0,0,1-.093.278.742.742,0,0,0-.026.172.412.412,0,0,1-.053.172,1.531,1.531,0,0,1-.093.384.616.616,0,0,1-.093.119,1.173,1.173,0,0,1-.053.37q-.053.159-.106.344-.053.291-.066.357a.744.744,0,0,0-.013.146l-.238.741a3.6,3.6,0,0,1-.079.4.435.435,0,0,0-.026.132,1.442,1.442,0,0,0-.119.463.515.515,0,0,1-.013.2q-.079.212-.093.251a.293.293,0,0,0-.013.093,1.451,1.451,0,0,1-.066.251.306.306,0,0,0-.04.066,1.438,1.438,0,0,0-.079.278,2.222,2.222,0,0,1-.079.3,1.085,1.085,0,0,0-.093.225,1.222,1.222,0,0,1-.04.146q-.053.265-.079.37t-.053.2q-.026.093-.053.172a2.22,2.22,0,0,0-.079.3,1.441,1.441,0,0,1-.079.278,1.254,1.254,0,0,1-.066.225.1.1,0,0,0-.013.066,1.8,1.8,0,0,1-.146.476.316.316,0,0,0-.04.238q-.212.238-.238.225t-.026.04a.656.656,0,0,0-.344.026q-.423.132-.609.185a1.389,1.389,0,0,0-.5.026,2.677,2.677,0,0,1-.357-.013.613.613,0,0,0-.119-.013,2.138,2.138,0,0,1-.556-.013.6.6,0,0,0-.37.04.452.452,0,0,0-.357-.013.6.6,0,0,1-.41-.013,3.946,3.946,0,0,1-.423.066,1.279,1.279,0,0,1-.318-.013,1.193,1.193,0,0,1-.251-.079.341.341,0,0,0-.225-.026q-.291-.185-.318-.212l-.079-.079q-.159-.265-.185-.318a.085.085,0,0,0-.079-.053,1.109,1.109,0,0,0-.066-.265q-.013,0-.013-.053a1.124,1.124,0,0,1-.119-.318.212.212,0,0,0-.093-.159.44.44,0,0,0-.066-.238,1.5,1.5,0,0,1-.119-.238.654.654,0,0,1-.066-.212.514.514,0,0,0-.04-.159,1.137,1.137,0,0,0-.119-.331.108.108,0,0,1-.04-.066q-.132-.4-.238-.741a.487.487,0,0,1-.04-.146.983.983,0,0,0-.04-.172,1.067,1.067,0,0,1-.093-.172.227.227,0,0,1,.013-.2.452.452,0,0,1-.093-.185q-.013-.079-.04-.185a1.81,1.81,0,0,1-.212-.45,2.469,2.469,0,0,0-.132-.45,2.619,2.619,0,0,0-.132-.4,2.068,2.068,0,0,0-.159-.423q-.053-.238-.053-.265a.2.2,0,0,0-.026-.079l-.106-.318-.159-.423-.106-.4a.887.887,0,0,0-.119-.318.089.089,0,0,1-.04-.079.541.541,0,0,1-.026-.172.541.541,0,0,0-.026-.172q-.053-.185-.106-.331a.591.591,0,0,1-.026-.3q-.106-.265-.119-.291a.184.184,0,0,1-.013-.079l-.106-.37a1.2,1.2,0,0,1-.106-.4,1.308,1.308,0,0,0-.066-.2q-.04-.093-.093-.225a.47.47,0,0,1-.04-.132.676.676,0,0,0-.066-.185,1.729,1.729,0,0,0-.079-.265.369.369,0,0,1-.026-.159,1.364,1.364,0,0,0-.291-.662,2.139,2.139,0,0,0-.079-.37l-.053-.106a1.759,1.759,0,0,0-.106-.423.823.823,0,0,1-.106-.291,1.015,1.015,0,0,1-.079-.3.18.18,0,0,0-.026-.119,1.812,1.812,0,0,1-.132-.37,1.875,1.875,0,0,1-.079-.238,1.033,1.033,0,0,0-.079-.212q-.079-.212-.093-.265a.435.435,0,0,1-.013-.106,2.165,2.165,0,0,0,.079-.463.2.2,0,0,1,.132-.2.605.605,0,0,1,.291-.066.419.419,0,0,0,.185-.013.862.862,0,0,1,.238-.079.152.152,0,0,0,.106-.053l.318.026q.238.053.318.066a1.345,1.345,0,0,0,.212.013q.265.053.3.066a.293.293,0,0,0,.093.013.744.744,0,0,0,.146-.013.742.742,0,0,1,.146-.013.5.5,0,0,1,.159.026.5.5,0,0,0,.159.026.674.674,0,0,0,.238-.04.515.515,0,0,1,.265-.013.435.435,0,0,0,.3,0q.093-.053.2.053a.547.547,0,0,1,.37-.053q.291,0,.291-.026t.053-.053a.918.918,0,0,1,.278-.04.217.217,0,0,0,.066.013.843.843,0,0,1,.344.106.364.364,0,0,0,.185.079,2.867,2.867,0,0,0,.146.357.73.73,0,0,1,.066.146.965.965,0,0,0,.106.582,1.442,1.442,0,0,0,.013.318q.013,0,.013.053a1,1,0,0,0,.053.318,1.9,1.9,0,0,1,.066.463.68.68,0,0,0,.013.225.568.568,0,0,0,.026.146.568.568,0,0,1,.026.146,1.034,1.034,0,0,0,.013.238.118.118,0,0,1,.013.053,1.832,1.832,0,0,1,.053.212.458.458,0,0,1-.026.265.285.285,0,0,1,.053.159.778.778,0,0,0,.026.185.647.647,0,0,1,.066.238.094.094,0,0,0,.013.079,1.487,1.487,0,0,1,.053.344.821.821,0,0,1,.026.2.541.541,0,0,0,.026.172,1.487,1.487,0,0,1,.053.344.657.657,0,0,1,.106.265.284.284,0,0,0,.053.159.8.8,0,0,0,.079.318q.026.185.066.384a2.988,2.988,0,0,0,.093.357,1.566,1.566,0,0,1,.079.357.446.446,0,0,0,.053.2.714.714,0,0,1,.013.225.18.18,0,0,0,.013.119.444.444,0,0,0,.079.172.267.267,0,0,1,.053.172,1.443,1.443,0,0,1,.106.119A.191.191,0,0,0,117.262-187.853Zm13.7-13.575a.333.333,0,0,1,.2.106q.066.079.146.159a3.4,3.4,0,0,1,.132.582,4.618,4.618,0,0,0,.013.463,1.869,1.869,0,0,1,.013.251.877.877,0,0,1-.013.185.557.557,0,0,0-.013.132.326.326,0,0,0-.013.159,1.142,1.142,0,0,1,.013.185,1.915,1.915,0,0,1,0,.45,1.29,1.29,0,0,1-.106.291l-.185.265a.753.753,0,0,0-.132.159.173.173,0,0,1-.079.079q-.344.132-.49.172t-.278.066a1.459,1.459,0,0,0-.291.053,1.094,1.094,0,0,0-.146.013,1.094,1.094,0,0,1-.146.013l-.318.026a1.433,1.433,0,0,1-.238-.04.117.117,0,0,0-.053-.013,1.589,1.589,0,0,1-.4.04q-.106-.013-.238-.04a3.012,3.012,0,0,1-.384-.013.406.406,0,0,0-.172.013,1.72,1.72,0,0,0-.45,0h-.529a2.565,2.565,0,0,0-.251-.238q-.013,0-.04-.053l-.238-.238a2.509,2.509,0,0,0-.079-.609l-.053-.529v-.344a1.857,1.857,0,0,1,.053-.529.794.794,0,0,1,.053-.384.228.228,0,0,0,.053-.146q.159-.238.185-.291a.415.415,0,0,1,.079-.106l.476-.212.4-.132a1.027,1.027,0,0,0,.132-.053h.4l.37-.079q.106-.026.225-.053a1.039,1.039,0,0,1,.225-.026.964.964,0,0,1,.159.013.964.964,0,0,0,.159.013.964.964,0,0,0,.159-.013,1.14,1.14,0,0,1,.185-.013,2.537,2.537,0,0,1,.384.026.83.83,0,0,0,.357-.026.677.677,0,0,1,.291.013,1.884,1.884,0,0,1,.344.093Zm.4,20.216a.191.191,0,0,1-.053.2.128.128,0,0,0-.053.146l-.37.079a1.889,1.889,0,0,1-.476.159,1.441,1.441,0,0,1-.437.04q-.225-.013-.516-.04-.291.026-.41.026h-.622q-.265.026-.291.026a1.5,1.5,0,0,0-.384.04.931.931,0,0,1-.2.04h-.37l-.37-.079a1.705,1.705,0,0,0-.212.013.748.748,0,0,1-.238-.013q-.132-.053-.212-.093a.409.409,0,0,0-.185-.04,1.82,1.82,0,0,1-.132-.331.09.09,0,0,0-.026-.066.4.4,0,0,1-.066-.251,2.04,2.04,0,0,0,.013-.225.963.963,0,0,0-.013-.159.832.832,0,0,1-.013-.132.5.5,0,0,1,.026-.159.586.586,0,0,0,.026-.185,1.672,1.672,0,0,0,.04-.238q.013-.132.04-.265a2.84,2.84,0,0,0,.026-.331v-.172a.541.541,0,0,0,.026-.172.82.82,0,0,1,.026-.2.594.594,0,0,0,0-.251.628.628,0,0,1-.026-.172,1.406,1.406,0,0,1,.013-.159,1.934,1.934,0,0,0,.013-.238q0-.185-.013-.344t-.013-.318a2.229,2.229,0,0,1,.053-.4v-.344a5.4,5.4,0,0,0,.026-.582q0-.344-.026-.635v-.291q.026-.318.04-.49a1.635,1.635,0,0,0-.013-.357.744.744,0,0,0-.013-.146.744.744,0,0,1-.013-.146,1.226,1.226,0,0,1-.026-.238v-.238a.857.857,0,0,0-.013-.2.293.293,0,0,1-.013-.093v-.476a.893.893,0,0,1,0-.331.163.163,0,0,0,.026-.093,3.808,3.808,0,0,1,.013-.41,1.407,1.407,0,0,0,.013-.2v-.291a3.281,3.281,0,0,0-.026-.556,1.845,1.845,0,0,1-.079-.318v-.4a2.069,2.069,0,0,0-.013-.3.406.406,0,0,1,.013-.172q0-.185-.013-.37t-.013-.4a.642.642,0,0,1,0-.265.5.5,0,0,0,.026-.159v-.741a2.247,2.247,0,0,1,0-.688.771.771,0,0,1,.106-.318,1.289,1.289,0,0,1,.106-.291,1.288,1.288,0,0,1,.476-.423,1.07,1.07,0,0,0,.225-.119.286.286,0,0,1,.146-.066,1.858,1.858,0,0,1,.318-.053,3.206,3.206,0,0,1,.582,0,2.151,2.151,0,0,0,.582-.026.663.663,0,0,1,.318.013.2.2,0,0,0,.185-.013,2.732,2.732,0,0,1,.437-.013,1.091,1.091,0,0,0,.146.013.61.61,0,0,1,.291-.026h.476a1.518,1.518,0,0,1,.185.013.264.264,0,0,1,.159.066.482.482,0,0,1,.291-.053.481.481,0,0,1,.119.106.172.172,0,0,0,.146.053,1.141,1.141,0,0,0,.185.318q.079.238.185.5a.855.855,0,0,1,.053.318,3.211,3.211,0,0,0,.026.4,1.705,1.705,0,0,0,.013.212,1.518,1.518,0,0,1,.013.185q0,.132-.013.265t-.04.265q-.026.4-.026.648a4.432,4.432,0,0,1-.026.49q-.026.132-.04.265t-.013.265a.72.72,0,0,0,.026.2.719.719,0,0,1,.026.2,3.738,3.738,0,0,1-.026.437q-.026.225-.053.463-.026.212-.053.41a3.318,3.318,0,0,0-.026.437.832.832,0,0,0,.013.132.964.964,0,0,1,.013.159,1.623,1.623,0,0,1-.013.225,1.623,1.623,0,0,0-.013.225q0,.132.013.265a.89.89,0,0,1-.013.265,1.157,1.157,0,0,1-.026.251,1.155,1.155,0,0,0-.026.251,1.7,1.7,0,0,0,0,.423,3.408,3.408,0,0,1,.026.423,1.345,1.345,0,0,1-.026.265.668.668,0,0,0,0,.265,2.2,2.2,0,0,1,.053.609,1.123,1.123,0,0,0,0,.344,2.1,2.1,0,0,1,.013.384,1.094,1.094,0,0,0-.013.146v.688a1.256,1.256,0,0,1-.026.291.6.6,0,0,1,.053.437.523.523,0,0,0,.053.41,1.17,1.17,0,0,0-.04.4,1.464,1.464,0,0,0,.066.37l.026.714q.026.159.04.331t.013.3l-.026.291Zm10.369-19.925a.165.165,0,0,1,.053.119.743.743,0,0,0,.026.172,1.324,1.324,0,0,1,0,.529V-200q-.026.4-.053.609a1.3,1.3,0,0,0,0,.37.481.481,0,0,1,0,.225.628.628,0,0,0-.026.172.964.964,0,0,0,.013.159.832.832,0,0,1,.013.132,1.155,1.155,0,0,1-.026.251,1.156,1.156,0,0,0-.026.251,6.129,6.129,0,0,0,0,1.138.319.319,0,0,0-.079.318.138.138,0,0,0,.146.026.568.568,0,0,1,.146-.026.454.454,0,0,0,.185-.026.3.3,0,0,1,.132-.026,1.616,1.616,0,0,1,.542-.013.9.9,0,0,0,.463-.04.971.971,0,0,0,.265.066.273.273,0,0,1,.212.146.957.957,0,0,1,.185.45q.159.265.132.291a.108.108,0,0,0-.026.079.694.694,0,0,1,.04.265,1.142,1.142,0,0,0-.013.185,2.1,2.1,0,0,1-.04.251.293.293,0,0,0-.013.093.965.965,0,0,0-.013.278.46.46,0,0,1-.04.251,1.487,1.487,0,0,1,.053.344,3.255,3.255,0,0,0-.04.847,1.815,1.815,0,0,1-.013.582,1.967,1.967,0,0,0-.04.2.679.679,0,0,0,.013.225q-.106.185-.093.225t-.04.066a.191.191,0,0,1-.066.159.142.142,0,0,0-.04.159.451.451,0,0,0-.159.066q-.053.04-.159-.013a1.487,1.487,0,0,1-.635.026h-.662a1.238,1.238,0,0,0-.476-.079.984.984,0,0,1-.238.026.365.365,0,0,0-.04.212,1.938,1.938,0,0,1,.013.238v.476q0,.238-.013.437t-.04.463a3.808,3.808,0,0,0,.013.41,1.222,1.222,0,0,1,.013.172,2.011,2.011,0,0,1-.013.516.965.965,0,0,0,.066.516,1.249,1.249,0,0,1,0,.384.325.325,0,0,0-.026.119,2.942,2.942,0,0,0,.053.437q.026.093.053.172a1.244,1.244,0,0,0,.013.265.185.185,0,0,1,.013.079l.053.159a.5.5,0,0,1,.026.159.628.628,0,0,1,.225.132.7.7,0,0,1,.066.106.973.973,0,0,1,.476.238.688.688,0,0,1,.212.026l.238.079a2.38,2.38,0,0,0,.5,0,1.814,1.814,0,0,1,.344-.026l.344-.053a.646.646,0,0,0,.238-.053.108.108,0,0,1,.079-.026,1.1,1.1,0,0,0,.384-.079.779.779,0,0,1,.2-.079.843.843,0,0,0,.212-.013.184.184,0,0,1,.079-.013,1.647,1.647,0,0,0,.331.159q.04,0,.04.053a.254.254,0,0,1,.026.185,1.3,1.3,0,0,1-.079.132v.344a.65.65,0,0,1-.053.238,2.428,2.428,0,0,1-.132.318.47.47,0,0,0-.04.132,1.044,1.044,0,0,1-.04.159,2.1,2.1,0,0,0-.159.437,2.222,2.222,0,0,1-.079.3,1.878,1.878,0,0,0-.079.238.6.6,0,0,1-.106.212q-.106.37-.132.529a.827.827,0,0,0-.066.251q.013.013-.013.04a3.506,3.506,0,0,0-.093.4.978.978,0,0,1-.066.238l-.106.37a2.977,2.977,0,0,1-.185.318q-.238.212-.265.225a.376.376,0,0,0-.079.066,1.69,1.69,0,0,0-.265.053.332.332,0,0,0-.132.079.472.472,0,0,0-.344.106,1.279,1.279,0,0,0-.318-.013q-.159.013-.423.013a1.035,1.035,0,0,0-.238.013.117.117,0,0,1-.053.013,1.343,1.343,0,0,0-.37-.053,2.817,2.817,0,0,0-.291-.026,1,1,0,0,1-.4-.053,2.723,2.723,0,0,0-.357-.04,2.722,2.722,0,0,1-.357-.04q-.159-.026-.331-.04t-.357-.04q-.265-.132-.278-.146a.054.054,0,0,0-.04-.013l-.318-.159a1.034,1.034,0,0,1-.331-.079.143.143,0,0,0-.066-.053q-.423-.185-.476-.37-.265-.106-.265-.132t-.053-.053q-.212-.185-.212-.238a2.439,2.439,0,0,0-.238-.251.253.253,0,0,1-.079-.146q-.212-.291-.225-.318a.376.376,0,0,0-.066-.079.329.329,0,0,1-.079-.146.611.611,0,0,0-.079-.172,4.531,4.531,0,0,1-.2-.569,2.088,2.088,0,0,0-.093-.3q-.026-.132-.04-.225t-.04-.225a1.673,1.673,0,0,1-.04-.238,1.356,1.356,0,0,0-.066-.291l-.026-.291a.724.724,0,0,1-.093-.291.436.436,0,0,0,.013-.106.757.757,0,0,1,0-.4.344.344,0,0,1-.04-.278q.04-.146.066-.278a1.623,1.623,0,0,0-.013-.225,1.408,1.408,0,0,1-.013-.2.984.984,0,0,1,.026-.238.983.983,0,0,0,.026-.238.818.818,0,0,0,.013-.251,2.279,2.279,0,0,1-.013-.251v-.82a2.817,2.817,0,0,0,.026-.291v-.45a1.405,1.405,0,0,1,.013-.2,1.408,1.408,0,0,0,.013-.2,1.543,1.543,0,0,1-.013-.331,1.408,1.408,0,0,0,.013-.2v-.37a4.314,4.314,0,0,1-.053-.516,1.851,1.851,0,0,0-.026-.3q-.212.053-.476.106a5.265,5.265,0,0,1-.556.079,1.624,1.624,0,0,1-.225-.013,1.094,1.094,0,0,0-.146-.013.95.95,0,0,1-.251-.026q-.093-.026-.172-.053a3.749,3.749,0,0,0-.344-.212.488.488,0,0,0-.132-.2.488.488,0,0,1-.132-.2.427.427,0,0,1-.013-.278,1.259,1.259,0,0,0,.04-.331v-.238a1.227,1.227,0,0,0-.026-.238.925.925,0,0,0,.026-.225.41.41,0,0,0-.026-.172.981.981,0,0,1-.066-.291.275.275,0,0,0,.013-.106,2.817,2.817,0,0,1-.026-.291v-.132q-.026-.212-.04-.41t-.013-.384a.675.675,0,0,1,0-.291.108.108,0,0,0,.026-.079,1.458,1.458,0,0,1-.013-.318.488.488,0,0,0-.013-.185q.053-.238.079-.238t.053-.053l.344-.37a.378.378,0,0,0,.278,0,.884.884,0,0,1,.3-.053l.344.026a1.112,1.112,0,0,1,.5.106,1.342,1.342,0,0,1,.37.026.235.235,0,0,0,.106.026.17.17,0,0,0,.132,0,.329.329,0,0,1,.185,0,.565.565,0,0,0-.026-.291,2.886,2.886,0,0,1-.013-.49,2.515,2.515,0,0,0-.013-.463v-.423a2.023,2.023,0,0,1,.013-.331.12.12,0,0,0-.013-.093q-.053-.265-.053-.291a.743.743,0,0,0-.026-.344.262.262,0,0,0-.013-.185.907.907,0,0,1-.066-.185.515.515,0,0,1-.013-.2.515.515,0,0,0-.013-.2,1.375,1.375,0,0,0-.053-.172.388.388,0,0,1-.026-.146,1.115,1.115,0,0,0-.026-.185,1.321,1.321,0,0,1-.026-.159,1.01,1.01,0,0,0,.013-.265.149.149,0,0,1,.013-.106.333.333,0,0,1,.132-.185.525.525,0,0,0,.159-.185,1.4,1.4,0,0,0,.45.04,3.867,3.867,0,0,0,.423-.04.214.214,0,0,1,.132-.013.964.964,0,0,0,.159.013.818.818,0,0,0,.251.013,2.042,2.042,0,0,1,.225-.013l.159.053q.079.026.185.053.265-.026.37-.026a.653.653,0,0,0,.212.013.094.094,0,0,1,.079.013,1.07,1.07,0,0,0,.212-.013.149.149,0,0,1,.106.013,3.543,3.543,0,0,0,.357.026.635.635,0,0,0,.2-.026h.278a.333.333,0,0,0,.225-.053,2.086,2.086,0,0,1,.251.04q.04.013.093-.04a.143.143,0,0,0,.132.04,1.14,1.14,0,0,1,.185-.013,1.094,1.094,0,0,1,.146.013,1.093,1.093,0,0,0,.146.013.679.679,0,0,0,.225.013.137.137,0,0,1,.146.093Zm19.34,22.413-.079.662a2.782,2.782,0,0,1-.212.794.18.18,0,0,1-.013.2.478.478,0,0,0-.066.278q-.132.265-.172.37a2.2,2.2,0,0,1-.093.212,2.948,2.948,0,0,1-.106.344.415.415,0,0,1-.079.106.249.249,0,0,0-.066.146.249.249,0,0,1-.066.146,2.068,2.068,0,0,0-.212.265,1.024,1.024,0,0,0-.053.132.279.279,0,0,0-.132.093.283.283,0,0,1-.159.093.611.611,0,0,0-.079.172.4.4,0,0,1-.106.172,2.3,2.3,0,0,0-.238.3q-.053.093-.106.172a1.011,1.011,0,0,1-.251.291q-.066.026-.093.159a.228.228,0,0,0-.146.053,1.441,1.441,0,0,0-.119.106.307.307,0,0,0-.119.238.153.153,0,0,1-.066.159,3.7,3.7,0,0,0-.4.278,1.852,1.852,0,0,1-.185.146.973.973,0,0,0-.251.132.143.143,0,0,1-.066.053,1.8,1.8,0,0,1-.146.132.707.707,0,0,0-.146.185q-.159,0-.238.212a1.281,1.281,0,0,1-.265.119q0-.013-.026.013a1.43,1.43,0,0,0-.476.238.7.7,0,0,1-.238.159.285.285,0,0,1-.159.053.285.285,0,0,0-.159.053q-.238.106-.318.146l-.185.093a.433.433,0,0,1-.238.053.206.206,0,0,0-.212.132l-.318.079q-.291.185-.357.172t-.119.066a1.439,1.439,0,0,1-.41-.079.89.89,0,0,1-.225-.146,2.4,2.4,0,0,1-.212-.212.869.869,0,0,0-.265-.2q-.185-.238-.238-.291a1.523,1.523,0,0,1-.238-.556q-.053-.132-.093-.251l-.066-.2a.861.861,0,0,0-.132-.5q0-.265-.053-.265a.047.047,0,0,1-.053-.053.483.483,0,0,0-.066-.185q-.04-.053.013-.238-.132-.344-.212-.37a.511.511,0,0,0-.026-.357.436.436,0,0,1,.053-.41.816.816,0,0,1,.04-.331q.04-.066.093-.146a1.529,1.529,0,0,0,.318-.2.643.643,0,0,1,.079-.093,1.7,1.7,0,0,1,.331-.079.262.262,0,0,0,.119-.026q.265-.132.251-.159t.013-.026a.588.588,0,0,0,.185-.079.868.868,0,0,0,.132-.106.465.465,0,0,0,.344-.132q.159-.079.3-.159t.318-.159q.172-.079.331-.159a.89.89,0,0,0,.212-.132q.132-.185.159-.212a.308.308,0,0,0,.053-.079,1.1,1.1,0,0,1,.212-.159,1.023,1.023,0,0,0,.185-.132.862.862,0,0,1,.265-.265,1.189,1.189,0,0,0,.132-.278.417.417,0,0,1,.053-.146.908.908,0,0,0,.146-.463.62.62,0,0,1,.093-.357q-.026-.053.053-.212a.639.639,0,0,0,.079-.212,1.77,1.77,0,0,0,.04-.37q-.013-.026.04-.159a.262.262,0,0,0-.013-.185.325.325,0,0,1,.013-.238q.026-.291.04-.344a.436.436,0,0,0,.013-.106v-.847a1.137,1.137,0,0,0-.026-.212.636.636,0,0,0,.026-.3.179.179,0,0,1,.026-.172l-.5.265a1.371,1.371,0,0,0-.3.251.512.512,0,0,1-.066.093q-.318.106-.318.132t-.053.053q-.265.106-.291.119a.207.207,0,0,0-.053.04,1.616,1.616,0,0,0-.318.185,1.311,1.311,0,0,0-.331.106.747.747,0,0,1-.225.079.249.249,0,0,0-.159.066q-.079.066-.132.119-.318.079-.331.079a.232.232,0,0,0-.066.026q-.265.159-.278.132t-.04,0a.8.8,0,0,1-.225.106.213.213,0,0,0-.093.026q-.37.132-.476.159a1.876,1.876,0,0,0-.238.079,3.4,3.4,0,0,1-.45.079q-.238.026-.37.053a1,1,0,0,1-.278-.2.166.166,0,0,0-.04-.066q-.318-.212-.318-.265a1.438,1.438,0,0,0-.265-.146q0,.013-.026-.013a1.357,1.357,0,0,1-.291-.318.79.79,0,0,0-.344-.318l-.238-.291a2.745,2.745,0,0,1-.265-.318q-.185-.212-.185-.265a1.1,1.1,0,0,0-.159-.212l-.185-.185a3.045,3.045,0,0,0-.238-.291.706.706,0,0,0-.185-.132,2.239,2.239,0,0,0-.159-.318,1.477,1.477,0,0,1-.093-.159.341.341,0,0,0-.119-.132.189.189,0,0,0-.026-.172.108.108,0,0,1-.026-.119q-.079-.291-.106-.4a.983.983,0,0,1-.026-.238,1.841,1.841,0,0,1-.013-.357.126.126,0,0,0-.04-.119.961.961,0,0,0,.053-.3v-.3a1.155,1.155,0,0,1-.04-.318.436.436,0,0,0,.013-.106,1.354,1.354,0,0,1,.026-.2.359.359,0,0,0,0-.2v-.291a.832.832,0,0,1,0-.423,1.456,1.456,0,0,0,.013-.318.436.436,0,0,1-.013-.106,1.408,1.408,0,0,1,.013-.2,1.4,1.4,0,0,0,.013-.2q.026-.159.053-.331a.973.973,0,0,0-.026-.384.526.526,0,0,0,.079-.318,2,2,0,0,1-.013-.384q.013-.146.013-.3a1.4,1.4,0,0,1,.013-.2,1.405,1.405,0,0,0,.013-.2.983.983,0,0,0-.026-.238l-.053-.212a.745.745,0,0,1,.013-.146.743.743,0,0,0,.013-.146v-.172a.54.54,0,0,0-.026-.172,2.045,2.045,0,0,1,.013-.318.149.149,0,0,0-.013-.106q0-.079-.013-.212t-.04-.265a2.021,2.021,0,0,1,.013-.331.293.293,0,0,0,.013-.093l-.053-.318a1.536,1.536,0,0,0-.026-.37.5.5,0,0,1-.026-.159,1.7,1.7,0,0,0-.026-.41.388.388,0,0,1-.026-.146,3.8,3.8,0,0,0,.013-.516.968.968,0,0,0-.066-.251.33.33,0,0,1-.026-.146.2.2,0,0,0-.053-.146.833.833,0,0,0,.04-.331,1.368,1.368,0,0,1,.013-.331,2.907,2.907,0,0,0,.132-.344,3.464,3.464,0,0,0,.476-.212q.291.026.37.04a.831.831,0,0,0,.132.013,1.432,1.432,0,0,1,.331-.066.1.1,0,0,0,.066.013,1.094,1.094,0,0,0,.331.04,1.624,1.624,0,0,1,.225-.013.806.806,0,0,0,.41.04.356.356,0,0,1,.251.013.318.318,0,0,0,.212.026.435.435,0,0,1,.132-.026,1.156,1.156,0,0,1,.251.026l.251.053h.37a1.879,1.879,0,0,1,.37-.013.329.329,0,0,0,.238-.066q.291.053.318.053a.411.411,0,0,1,.291.132l.159.212a1.693,1.693,0,0,1,.265.569,1.824,1.824,0,0,1,.026.542.719.719,0,0,1-.026.2.72.72,0,0,0-.026.2,1.223,1.223,0,0,0,.013.172,1.222,1.222,0,0,1,.013.172l-.053.344a.862.862,0,0,0-.053.37.586.586,0,0,1,.026.185.5.5,0,0,1-.026.159.586.586,0,0,0-.026.185,2.384,2.384,0,0,0-.013.437,1.442,1.442,0,0,1-.04.437,2.709,2.709,0,0,0-.053.4v.185a1.7,1.7,0,0,0,.026.3.608.608,0,0,1-.026.3.632.632,0,0,1,.04.291q-.013.159-.013.37-.026.4-.026.556v.318q0,.132.013.265t.013.265a1.405,1.405,0,0,0,.013.2.162.162,0,0,1-.04.146.248.248,0,0,1,.026.2,1.039,1.039,0,0,0-.026.225.668.668,0,0,0,0,.265,1.345,1.345,0,0,1,.026.265,1.155,1.155,0,0,0,.026.45,1.993,1.993,0,0,0,.079.344l.053.106.053.291a.855.855,0,0,0,.053.318q.265.185.291.132t.079,0a.29.29,0,0,0,.225.013q.093-.04.225-.093a1.715,1.715,0,0,0,.4-.026q.238-.132.278-.119a.2.2,0,0,0,.119-.013,3.26,3.26,0,0,0,.344-.212.352.352,0,0,1,.212-.079l.318-.212q.344-.212.37-.291a.936.936,0,0,1,.344-.185q.106-.37.132-.5a.571.571,0,0,1-.013-.2.293.293,0,0,0,.013-.093q-.026-.159-.04-.331t-.013-.3a.728.728,0,0,0,0-.291.235.235,0,0,1-.026-.106.12.12,0,0,1-.026-.132.5.5,0,0,0,.026-.159.8.8,0,0,1-.066-.278.293.293,0,0,0,.013-.093,1.517,1.517,0,0,0-.013-.185,1.518,1.518,0,0,1-.013-.185.949.949,0,0,0,0-.331.388.388,0,0,1-.026-.146.368.368,0,0,0,.026-.225q-.026-.066.079-.093a1.565,1.565,0,0,1-.093-.318,1.934,1.934,0,0,1-.013-.238q0-.212.013-.437t.013-.437l.026-.344a.7.7,0,0,0,.026-.344.839.839,0,0,1,.026-.37,1,1,0,0,1-.04-.3.231.231,0,0,1,.066-.119,1,1,0,0,1-.026-.37.112.112,0,0,0,0-.106q-.026-.291-.026-.344a.61.61,0,0,1,0-.265.235.235,0,0,0,.026-.106,1.3,1.3,0,0,1-.026-.423.587.587,0,0,0,.026-.185q0-.265.013-.384a.547.547,0,0,1,.04-.172q.026-.079.053-.185l.053-.212a.588.588,0,0,1,.185-.079l.212-.053h.159a.326.326,0,0,1,.185.053,1.015,1.015,0,0,1,.331.066.175.175,0,0,0,.172-.013,1.213,1.213,0,0,1,.225.053.389.389,0,0,0,.146.026.5.5,0,0,0,.159-.026l.159-.053a1.345,1.345,0,0,1,.212.013,1.14,1.14,0,0,0,.185.013,2.042,2.042,0,0,1,.225.013.29.29,0,0,0,.2-.04.41.41,0,0,1,.172-.026h.2a1.575,1.575,0,0,1,.476.013,1.305,1.305,0,0,0,.318.04.5.5,0,0,0,.159-.026.329.329,0,0,1,.185,0,2.136,2.136,0,0,1,.37.079.449.449,0,0,0,.2.04.293.293,0,0,1,.093-.013.732.732,0,0,1,.146.066.168.168,0,0,0,.146.013,1.366,1.366,0,0,0,.265.291.469.469,0,0,0,.026.172.564.564,0,0,1,.026.2.406.406,0,0,0-.013.172.613.613,0,0,1,.013.119.907.907,0,0,1-.013.172,1.1,1.1,0,0,0-.013.2,1.793,1.793,0,0,1-.013.278.613.613,0,0,0-.013.119.54.54,0,0,1-.013.265.782.782,0,0,0-.04.212,2.278,2.278,0,0,0,.013.251.519.519,0,0,1-.04.251.459.459,0,0,1,.013.185.966.966,0,0,0-.013.159,3.64,3.64,0,0,1,.026.384,1.415,1.415,0,0,1-.026.278.745.745,0,0,1-.013.146.744.744,0,0,0-.013.146,1.042,1.042,0,0,0-.013.291q.013.159.013.318v.318a.5.5,0,0,0-.026.265.175.175,0,0,1-.026.159.328.328,0,0,0-.013.172,1.855,1.855,0,0,1,.013.2,1.41,1.41,0,0,1-.026.318,1.53,1.53,0,0,0-.026.463.179.179,0,0,1-.026.172.438.438,0,0,0-.04.265q.013.185.013.318a.993.993,0,0,1,0,.344.235.235,0,0,0-.026.106,4.153,4.153,0,0,1,.013.542q-.013.146-.013.3a1.282,1.282,0,0,1-.013.238.488.488,0,0,0,.013.185,1.263,1.263,0,0,1-.013.251.293.293,0,0,0-.013.093,1.328,1.328,0,0,1,.013.3.18.18,0,0,0,.013.119,1.705,1.705,0,0,1-.013.212.573.573,0,0,0,.013.212.745.745,0,0,0,.013.146.743.743,0,0,1,.013.146,1.14,1.14,0,0,1,0,.37.235.235,0,0,0-.026.106.72.72,0,0,0,.026.2.72.72,0,0,1,.026.2,1.316,1.316,0,0,1-.066.291q-.013,0-.013.026l.053.476q-.026.265-.04.423t-.013.291v.476a3.012,3.012,0,0,0,.013.384.743.743,0,0,1,.013.146,2.257,2.257,0,0,1-.04.516,1.056,1.056,0,0,0-.04.278,1.405,1.405,0,0,1-.013.2,1.1,1.1,0,0,0-.013.146,1.656,1.656,0,0,1-.04.265.117.117,0,0,0-.013.053,1.155,1.155,0,0,0,.026.251,1.156,1.156,0,0,1,.026.251,1.46,1.46,0,0,1-.013.3.1.1,0,0,0-.013.066,1.253,1.253,0,0,0-.04.3.054.054,0,0,1,.013.04l-.04.278a1.626,1.626,0,0,0-.013.225Z" transform="translate(-11.68 201.703)" fill="#e7470c"/>
</svg>
